<svg width="1920" height="1080" viewBox="0 0 1920 1080" fill="none" xmlns="http://www.w3.org/2000/svg">
<g clip-path="url(#clip0_2_2)">
<rect width="1920" height="1080" fill="white"/>
<path d="M-4 0H1920V1181.73L-4 1100.78V0Z" fill="url(#paint0_linear_2_2)"/>
<path d="M0 0H1920V1080H0V0Z" fill="url(#paint1_linear_2_2)"/>
<path d="M311.66 872.349L268.507 876.928L-1.61586 904.668V0H309.514L455.662 256.399L451.132 356.589L506.206 399.412L625.174 622.145L750.58 715.062L765.123 825.756L311.66 872.349Z" fill="url(#paint2_linear_2_2)"/>
<path opacity="0.8" d="M451.132 356.588L459 362.514L453.278 363.052L410.125 420.688L397.489 424.728L343.607 441.157L321.912 469.975L298.309 525.995L273.991 593.327L280.905 568.818L317.62 464.05L342.415 435.501L401.304 412.878L443.503 354.165L453.278 308.379L451.132 356.588Z" fill="#1E0F26"/>
<g style="mix-blend-mode:soft-light">
<path d="M506.206 399.411L479.98 438.194H459L410.125 420.688L453.278 363.052L459 362.514L506.206 399.411Z" fill="#A2A4D4"/>
</g>
<g style="mix-blend-mode:soft-light">
<path d="M397.489 424.728L430.39 441.157L592.512 593.327L482.364 622.145L343.607 441.157L397.489 424.728Z" fill="#A2A4D4"/>
</g>
<g style="mix-blend-mode:soft-light">
<path d="M750.58 715.062L527.901 781.855L317.62 622.145L482.364 643.691L625.174 622.145L750.58 715.062Z" fill="#A2A4D4"/>
</g>
<g style="mix-blend-mode:multiply" opacity="0.6">
<path fill-rule="evenodd" clip-rule="evenodd" d="M765.123 825.756L-1.61586 904.668V504.988L112.823 572.589L317.62 622.145L410.125 692.439L527.901 781.855L538.392 841.646L765.123 825.756ZM126.412 504.988H-1.61586V45.7855L228.454 193.915L366.734 290.873L455.662 256.399L451.132 356.589L410.125 420.688L343.607 441.157L482.364 622.145V643.691L317.382 622.145L126.412 504.988ZM45.1133 255.591L208.427 382.175L334.548 324.808L310.468 268.249L126.412 141.666L55.8419 131.701H33.431L45.1133 255.591Z" fill="#724777"/>
</g>
<g style="mix-blend-mode:multiply" opacity="0.5">
<path d="M430.628 441.157L397.489 424.728L410.125 420.688L459 438.195H479.98L517.888 523.302L430.628 441.157Z" fill="#724777"/>
</g>
<g style="mix-blend-mode:multiply" opacity="0.5">
<path d="M208.188 382.444L126.412 505.257H-1.61586V45.7855L168.373 155.402L366.734 290.873L317.62 420.688L334.309 325.077L310.23 268.519L126.412 141.935L44.8748 131.97H33.431L44.8748 255.86L208.188 382.444Z" fill="#724777"/>
</g>
<g style="mix-blend-mode:soft-light">
<path d="M-1.61586 904.668V747.651L65.14 754.923L71.1004 883.122H81.1138V867.232L126.412 859.96L130.465 883.122H133.565V854.843L139.525 850.264L141.432 867.232H150.969L151.923 831.142L184.109 829.257L187.685 867.232H192.93V856.19L281.381 851.611L310.229 847.571V823.062L314.044 715.062L329.064 701.865V813.636H334.309L343.607 685.436L397.489 701.865L405.118 851.072L413.701 851.611V781.855H417.754L422.046 851.611H438.735L432.297 735.8H451.132L455.424 843.262H471.397V830.604H499.292L505.014 843.262H533.385V829.257L588.935 822.254L601.571 837.067L608.008 834.374V822.254H618.975V830.604L631.85 829.257V802.863L645.678 799.362L648.062 825.756L696.222 822.793L700.99 782.933L708.381 780.778V809.327H711.957V769.736L721.732 766.773L720.54 788.05L735.798 785.626V778.893L757.971 771.89L765.123 825.756L-1.61586 904.668Z" fill="#775047"/>
</g>
<g style="mix-blend-mode:multiply" opacity="0.5">
<path d="M112.823 572.589L150.969 779.97V888.778L-1.61586 904.668V505.257L112.823 572.589Z" fill="#724777"/>
</g>
<g style="mix-blend-mode:multiply" opacity="0.5">
<path d="M527.901 781.855L534.1 851.611L301.647 873.426L310.229 823.062L317.62 622.145L527.901 781.855Z" fill="#724777"/>
</g>
<g style="mix-blend-mode:soft-light">
<path d="M-1.61586 0H309.514L455.662 256.399L366.734 290.873L-1.61586 45.7855V0Z" fill="#A2A4D4"/>
</g>
<g style="mix-blend-mode:soft-light">
<path d="M545.067 634.264L711.957 726.643V831.142H689.069L684.301 759.232L670.711 769.197L677.387 831.95L601.571 837.067L592.512 762.464L487.848 696.748L506.206 692.17L556.749 711.83H577.73L482.364 676.279L517.65 675.202L618.26 711.83L637.333 704.828L517.65 638.304L545.067 634.264Z" fill="#A48181"/>
</g>
<g style="mix-blend-mode:soft-light" opacity="0.5">
<path d="M534.1 634.264L531.239 609.486L410.125 457.855L422.046 457.047L517.65 557.506L528.14 553.466L422.046 444.389L377.701 430.653L397.489 424.728L430.628 441.157L581.068 596.289L583.213 628.608L736.037 719.372L745.812 829.257H729.838V721.257L577.253 629.416L534.1 634.264Z" fill="#C59281"/>
</g>
<path d="M489.517 752.499L550.789 774.853L528.855 791.282L489.517 752.499Z" fill="#392F66"/>
<path d="M160.506 584.17L116.637 593.327L81.1138 554.005L160.506 584.17Z" fill="#392F66"/>
<path d="M474.497 611.372L499.292 617.835L482.364 636.958L474.497 611.372Z" fill="#39396E"/>
<path d="M220.347 376.788L199.844 394.833L189.83 364.938L220.347 376.788Z" fill="#5B5277"/>
<path d="M377.701 286.564L364.588 296.798L354.574 282.793L377.701 286.564Z" fill="#5B5277"/>
<g style="mix-blend-mode:multiply" opacity="0.5">
<path d="M44.8748 255.86L19.1261 344.738L33.431 364.938L74.6766 438.195L21.0335 358.204L11.9737 344.738V257.207L33.431 131.97L44.8748 255.86Z" fill="#724777"/>
</g>
<path opacity="0.8" d="M143.101 476.708L150.969 481.287L273.991 468.898L295.448 441.965L320.004 406.145L317.62 420.688L273.991 472.13L135.472 491.521L102.094 459.202L143.101 476.708Z" fill="#13031B"/>
<g style="mix-blend-mode:multiply" opacity="0.2">
<path d="M150.969 779.97L310.229 823.062L301.647 873.426L150.969 888.778V779.97Z" fill="#724777"/>
</g>
<g style="mix-blend-mode:soft-light" opacity="0.5">
<path d="M150.969 888.778L149.539 771.89L116.637 593.327L96.6107 538.653H105.67L132.611 554.005H138.81L126.412 548.08L135.472 546.195L183.87 570.973L201.513 570.165L125.22 526.264L137.856 524.379L240.374 585.516L259.924 586.863L317.62 622.145L314.998 694.055H305.7L301.647 630.224L288.534 629.147L281.143 764.618H254.917L256.11 660.389L252.772 658.773L253.487 691.092L245.381 690.554L240.374 622.145H227.5L232.983 878.813L150.969 888.778Z" fill="#A48181"/>
</g>
<g style="mix-blend-mode:soft-light">
<path d="M199.844 550.234L230.599 478.055L273.991 352.549L39.8682 200.918L38.1993 183.142L169.327 275.521L234.891 315.651L246.811 308.379L120.69 230.274L125.936 222.195L269.461 317.805L278.997 315.651L220.347 271.212L251.818 257.207L313.09 308.379H317.62L297.594 275.521H313.329L334.309 325.077L320.004 406.145L290.203 448.698L310.706 362.514H301.647L282.812 457.855L273.991 468.898L243.474 472.13L211.049 561.546L199.844 550.234Z" fill="#A48181"/>
</g>
<g style="mix-blend-mode:soft-light" opacity="0.5">
<path d="M161.698 0L421.092 246.434L426.814 244.279L282.097 83.4913L285.673 79.182L427.529 236.738L443.503 261.247L432.536 368.978L426.337 378.135V301.915L417.277 308.379L401.304 412.878L381.754 420.419L397.489 275.521L120.69 0L161.698 0Z" fill="#C59281"/>
</g>
<g style="mix-blend-mode:soft-light" opacity="0.5">
<path d="M453.278 363.052L459 362.514L506.206 399.411L542.683 467.82L537.915 472.13L521.941 435.232L517.888 435.501L561.756 538.653H555.557L499.292 409.646L429.436 394.833L453.278 363.052Z" fill="#C59281"/>
</g>
<g style="mix-blend-mode:soft-light" opacity="0.5">
<path d="M57.9876 505.257L189.831 593.327L211.049 781.855L207.235 883.122H199.844L207.235 785.895L184.347 593.327L50.12 505.257H57.9876Z" fill="#C59281"/>
</g>
<g style="mix-blend-mode:soft-light" opacity="0.5">
<path d="M594.419 843.262L597.28 817.406L589.889 764.08L340.27 625.646H345.038L592.512 762.464L602.286 843.262H594.419Z" fill="#C59281"/>
</g>
<g style="mix-blend-mode:multiply" opacity="0.2">
<path d="M273.991 593.327L321.912 469.975L343.607 441.157L474.497 611.372L482.364 636.958V643.691L317.62 622.145L273.991 593.327Z" fill="#724777"/>
</g>
<path d="M482.364 434.693V443.581L459 438.194L482.364 434.693Z" fill="#5B5277"/>
<g style="mix-blend-mode:soft-light" opacity="0.5">
<path d="M104.717 461.895L135.949 483.98L169.327 486.673L135.472 491.521L104.717 461.895Z" fill="#A48181"/>
</g>
<g style="mix-blend-mode:soft-light" opacity="0.5">
<path d="M273.991 470.514L282.812 461.895L273.991 475.092H251.58L273.991 470.514Z" fill="#A48181"/>
</g>
<g style="mix-blend-mode:multiply" opacity="0.2">
<path d="M44.8748 255.86L191.499 369.516L199.844 394.833L143.101 476.708L102.094 459.202L74.6766 438.194L19.1261 344.738L44.8748 255.86Z" fill="#724777"/>
</g>
<path d="M240.374 888.778L282.097 835.99L366.734 809.327L459 834.374L489.517 888.778L350.045 909.247L240.374 888.778Z" fill="url(#paint3_linear_2_2)"/>
<g style="mix-blend-mode:multiply" opacity="0.5">
<path d="M282.097 835.99L405.118 851.072L459 834.374L489.517 888.778L350.045 909.247L240.374 888.778L282.097 835.99Z" fill="#724777"/>
</g>
<g style="mix-blend-mode:multiply" opacity="0.5">
<path d="M405.118 851.072L350.045 909.247L240.374 888.778L282.097 835.99L405.118 851.072Z" fill="#724777"/>
</g>
<path d="M389.144 849.187L413.701 848.379L398.204 855.92L389.144 849.187Z" fill="#4D436B"/>
<g style="mix-blend-mode:soft-light">
<path d="M340.27 817.406L451.371 837.067L454.231 894.165L430.39 897.397V843.262L325.488 822.254L340.27 817.406Z" fill="#A48181"/>
</g>
<path d="M160.982 932.14L164.797 899.282L201.513 893.626L240.374 915.711L227.261 932.14H174.095H160.982Z" fill="url(#paint4_linear_2_2)"/>
<g style="mix-blend-mode:multiply" opacity="0.5">
<path d="M164.797 899.282L191.499 919.751L240.374 915.711L227.261 932.14H174.095H160.982L164.797 899.282Z" fill="#724777"/>
</g>
<g style="mix-blend-mode:multiply" opacity="0.5">
<path d="M191.499 919.751L174.095 932.14H160.982L164.797 899.282L191.499 919.751Z" fill="#724777"/>
</g>
<path d="M119.737 949.107L135.711 935.641L165.989 942.374L158.36 967.422H119.737V949.107Z" fill="url(#paint5_linear_2_2)"/>
<g style="mix-blend-mode:multiply" opacity="0.5">
<path d="M119.737 949.107L154.307 954.494L165.989 942.374L158.36 967.422H119.737V949.107Z" fill="#724777"/>
</g>
<g style="mix-blend-mode:multiply" opacity="0.5">
<path d="M154.307 954.494L158.36 967.422H119.737V949.107L154.307 954.494Z" fill="#724777"/>
</g>
<path d="M520.034 883.122L534.1 867.232L565.094 834.374H595.372L602.286 851.611L587.266 883.122L550.789 887.701L520.034 883.122Z" fill="url(#paint6_linear_2_2)"/>
<g style="mix-blend-mode:multiply" opacity="0.5">
<path d="M565.094 834.374L585.598 848.379L602.286 851.611L587.266 883.122L553.412 887.701L520.034 883.122L565.094 834.374Z" fill="#724777"/>
</g>
<g style="mix-blend-mode:multiply" opacity="0.5">
<path d="M565.094 834.374L585.598 848.379L553.412 887.701L520.034 883.122L565.094 834.374Z" fill="#724777"/>
</g>
<path d="M309.514 0L455.662 256.399L451.132 356.589L506.206 399.411L625.174 622.145L750.58 715.062L618.975 624.03L501.199 401.835L453.278 363.052L451.132 356.589L448.271 259.362L309.514 0Z" fill="#6090CC"/>
<path d="M1455.09 914.903L1465.58 823.601L1467.73 821.985L1472.97 733.646L1474.88 728.798L1465.11 890.663L1472.02 895.511V908.978L1455.09 914.903Z" fill="#1E0F26"/>
<path d="M1443.41 918.943L1447.7 895.511H1451.04L1451.52 915.98L1443.41 918.943Z" fill="#1E0F26"/>
<path d="M1622.46 927.561L1628.66 883.122H1630.8L1626.75 919.212L1629.37 922.983L1629.61 926.484L1622.46 927.561Z" fill="#1E0F26"/>
<path d="M1401.93 933.486L1402.88 914.903H1408.13L1410.27 930.254L1401.93 933.486Z" fill="#1E0F26"/>
<path d="M451.847 850.534V802.055H453.993V845.147L456.616 846.763L454.231 758.693L456.616 754.653V709.676L463.053 851.072L451.847 850.534Z" fill="#1E0F26"/>
<path d="M473.066 851.072V839.761L475.212 834.913V851.072H473.066Z" fill="#1E0F26"/>
<path d="M491.662 850.803V843.8L502.868 847.032L507.159 850.803H491.662Z" fill="#1E0F26"/>
<path d="M347.422 843.8L346.707 823.062L348.853 821.446L350.045 826.025L351.475 823.062L343.607 752.229L345.753 754.384L354.336 817.406L356.243 819.022L359.581 845.147L347.422 843.8Z" fill="#1E0F26"/>
<path d="M1447.7 895.511H1449.85L1449.61 916.788L1443.41 918.943L1447.7 895.511Z" fill="#60639E"/>
<path d="M1465.58 823.601L1467.01 823.062L1462.72 861.037L1463.91 863.461L1467.01 841.107L1462.48 901.706C1457.87 908.17 1455.57 911.312 1455.57 911.132L1465.58 823.601Z" fill="#60639E"/>
<path d="M1468.21 892.818L1465.11 908.978L1462.01 911.132L1465.11 890.663L1468.21 892.818Z" fill="#60639E"/>
<path d="M1402.88 914.903H1405.74L1406.69 931.601L1401.93 933.486L1402.88 914.903Z" fill="#60639E"/>
<path d="M348.853 821.446L351.475 844.339L348.853 844.07L346.707 823.062L348.853 821.446Z" fill="#60639E"/>
<path d="M343.607 752.229L345.753 754.384L358.389 844.878H356.72L352.667 823.062L343.607 752.229Z" fill="#60639E"/>
<path d="M359.581 845.147L355.528 818.214L356.243 819.023L359.581 845.147Z" fill="#60639E"/>
<path d="M795.163 758.963L792.064 742.534L852.859 723.95L963.96 722.334L962.768 698.095L1010.45 688.938L1021.42 687.052L1228.6 627.531L1165.42 670.085L843.8 817.676L525.04 827.372L795.163 758.963Z" fill="#91BFFA"/>
<path d="M575.584 834.643L957.523 865.885L533.146 851.88L525.04 827.372L575.584 834.643Z" fill="#1E0F26"/>
<path d="M1917.62 1078.65H-2.80793L-2.56952 855.382L499.53 850.534L957.523 865.885L678.102 846.763L545.544 836.529L525.04 827.372L955.378 727.721L965.391 723.95V699.441L1009.02 691.9L1018.56 694.324L1228.6 627.531L1196.41 679.78H1184.73L1162.32 748.997L1128.47 749.805L1113.92 725.835L1103.19 771.082L1094.37 777.815L1084.6 771.082L1057.42 862.653L1010.45 866.693L1055.75 886.085L1139.67 910.324L1161.84 895.511L1293.93 921.367L1301.32 929.985L1917.62 943.451V1078.65Z" fill="url(#paint7_linear_2_2)"/>
<path d="M1158.98 1078.65L1231.7 1040.68L1380.47 1042.29L1556.42 1023.71L1546.41 1008.9L1561.43 1006.74L1917.62 980.888V1001.36L1556.42 1009.71L1548.07 1009.98L1557.13 1023.71L1562.14 1035.02L1400.5 1049.03H1352.34L1233.13 1050.91L1192.12 1078.65H1158.98Z" fill="#1E0F26"/>
<path d="M1161.84 895.511L1208.33 917.596L1269.61 940.219L1139.67 910.324L1161.84 895.511Z" fill="#1E0F26"/>
<path d="M1010.45 866.693L967.06 863.461L1051.94 860.499L1079.83 766.773L1124.65 705.905L1228.6 627.531L1196.41 679.781H1184.73L1162.32 748.998L1128.47 749.805L1113.92 725.835L1105.82 769.466L1094.37 777.815L1084.6 771.082L1067.19 889.586L1055.75 886.085L1010.45 866.693Z" fill="#1E0F26"/>
<path d="M941.073 864.539L948.463 859.691L968.967 861.845L941.073 864.539Z" fill="#1E0F26"/>
<path d="M969.444 701.057L978.265 717.486L1000.91 720.718L1087.94 738.763L1078.88 739.571L982.318 725.835L965.391 723.95V699.441L969.444 701.057Z" fill="#1E0F26"/>
<path d="M1124.65 705.905L1121.08 701.057L1045.26 705.905L1138.24 695.671L1124.65 705.905Z" fill="#1E0F26"/>
<path d="M1172.81 664.429H1179.49L1173.53 669.007L1145.63 653.387L1172.81 664.429Z" fill="#1E0F26"/>
<path opacity="0.5" d="M1009.02 691.9L972.782 705.905L965.391 699.441L1009.02 691.9Z" fill="#542E74"/>
<path d="M296.163 838.145L520.749 891.741L564.617 896.588L578.445 899.282L617.307 900.898L575.584 905.476L564.379 899.282L521.464 902.244L329.779 852.958L304.269 853.227L296.163 838.145Z" fill="#1E0F26"/>
<path d="M296.163 838.145L359.581 845.147L373.886 823.062L410.84 841.646L412.986 851.88L416.801 846.763L459.238 851.072L443.264 855.651L357.197 852.688L296.163 838.145Z" fill="#1E0F26"/>
<path d="M410.84 841.646L418.708 853.766L381.515 841.915L373.886 823.062L410.84 841.646Z" fill="#60639E"/>
<path d="M458.761 851.342L444.457 855.382L429.436 853.227L416.8 846.763L458.761 851.342Z" fill="#60639E"/>
<path d="M381.754 851.611L386.999 848.648L402.734 853.227L381.754 851.611Z" fill="#60639E"/>
<path d="M359.581 845.147L372.217 849.456H332.64L296.163 838.145L359.581 845.147Z" fill="#60639E"/>
<g style="mix-blend-mode:multiply" opacity="0.5">
<path d="M521.464 902.244L520.749 891.741L564.617 896.589L564.379 899.282L521.464 902.244Z" fill="#B17B9D"/>
</g>
<g style="mix-blend-mode:multiply" opacity="0.5">
<path d="M575.584 905.476L578.445 899.282L617.307 900.898L575.584 905.476Z" fill="#B17B9D"/>
</g>
<g style="mix-blend-mode:multiply" opacity="0.5">
<path d="M332.64 849.456L334.309 854.035L329.779 852.958L304.269 853.227L296.163 838.145L332.64 849.456Z" fill="#B17B9D"/>
</g>
<g style="mix-blend-mode:multiply" opacity="0.5">
<path d="M371.74 853.227L372.217 849.456L359.581 845.147L373.886 823.062L381.515 841.915L386.999 843.8V848.648L381.754 851.611L386.522 852.15V853.766L371.74 853.227Z" fill="#B17B9D"/>
</g>
<path d="M852.144 726.913L957.285 725.027L793.733 745.227L852.144 726.913Z" fill="#414F85"/>
<path d="M965.391 723.95L944.172 730.683L796.355 764.618L793.733 745.227L965.391 723.95Z" fill="#1E0F26"/>
<g style="mix-blend-mode:multiply" opacity="0.5">
<path d="M868.833 748.189L867.403 736.07L919.854 729.606L918.662 736.339L868.833 748.189Z" fill="#B17B9D"/>
</g>
<g style="mix-blend-mode:multiply" opacity="0.5">
<path d="M926.529 734.723L927.245 728.529L945.364 726.374L944.172 730.683L926.529 734.723Z" fill="#B17B9D"/>
</g>
<g style="mix-blend-mode:multiply" opacity="0.5">
<path d="M693.361 848.918L694.791 841.915L715.533 831.95L735.083 850.803L693.361 848.918Z" fill="#B17B9D"/>
</g>
<g style="mix-blend-mode:multiply" opacity="0.5">
<path d="M607.055 841.915L627.32 819.561L636.618 813.636L678.102 846.763L607.055 841.915Z" fill="#B17B9D"/>
</g>
<g style="mix-blend-mode:soft-light">
<path d="M676.195 845.147L634.472 839.491L627.32 819.561L636.618 813.636L676.195 845.147Z" fill="#A2A4D4"/>
</g>
<g style="mix-blend-mode:soft-light">
<path d="M619.452 838.414L623.505 833.566L631.611 841.377L619.452 838.414Z" fill="#A2A4D4"/>
</g>
<g style="mix-blend-mode:soft-light">
<path d="M735.083 850.803L710.526 845.147L705.758 836.798L715.533 831.95L735.083 850.803Z" fill="#A2A4D4"/>
</g>
<g style="mix-blend-mode:soft-light">
<path d="M687.877 848.648L694.553 846.224L702.897 849.456L687.877 848.648Z" fill="#A2A4D4"/>
</g>
<path d="M815.19 783.202L822.104 785.357L920.807 791.013L929.152 802.594L935.828 804.21L1064.33 818.753L1062.9 823.062L929.152 804.21L921.761 792.898L816.621 786.703L796.355 764.618L815.19 783.202Z" fill="#1E0F26"/>
<g style="mix-blend-mode:multiply" opacity="0.5">
<path d="M1384.05 1040.68L1391.2 1049.03L1233.13 1050.91L1231.7 1040.68H1384.05Z" fill="#B17B9D"/>
</g>
<g style="mix-blend-mode:multiply" opacity="0.5">
<path d="M1402.88 1048.76V1039.06L1421.24 1037.99L1423.38 1047.14L1402.88 1048.76Z" fill="#B17B9D"/>
</g>
<g style="mix-blend-mode:multiply" opacity="0.5">
<path d="M1471.07 1043.37L1466.78 1033.14L1503.01 1029.37L1510.17 1039.06L1471.07 1043.37Z" fill="#B17B9D"/>
</g>
<path d="M1917.62 980.888V1001.36L1548.07 1009.98L1546.41 1008.9L1917.62 980.888Z" fill="#1E0F26"/>
<g style="mix-blend-mode:multiply" opacity="0.5">
<path d="M1411.22 993.815V998.663L1376.65 1001.36V991.391L1411.22 993.815Z" fill="#B17B9D"/>
</g>
<g style="mix-blend-mode:soft-light">
<path d="M1384.05 1040.68L1234.56 1041.49L1214.77 1035.02L1388.1 1007.28L1546.41 1008.9L1557.13 1023.71L1384.05 1040.68Z" fill="#A48181"/>
</g>
<g style="mix-blend-mode:multiply" opacity="0.5">
<path d="M1208.33 917.596L1205.95 925.676L1178.29 919.212L1179.72 903.86L1208.33 917.596Z" fill="#B17B9D"/>
</g>
<g style="mix-blend-mode:multiply" opacity="0.5">
<path d="M1214.77 927.83L1217.87 921.097L1269.61 940.219L1214.77 927.83Z" fill="#B17B9D"/>
</g>
<g style="mix-blend-mode:multiply" opacity="0.5">
<path d="M1051.94 860.499L1056.94 886.623L1010.45 866.693V861.845L1051.94 860.499Z" fill="#B17B9D"/>
</g>
<g style="mix-blend-mode:multiply" opacity="0.5">
<path d="M1138.24 695.671V704.289L1117.02 716.14L1124.65 705.905L1121.08 701.057L1138.24 695.671Z" fill="#B17B9D"/>
</g>
<g style="mix-blend-mode:multiply" opacity="0.5">
<path d="M1168.76 666.314L1168.04 662.544L1172.81 664.429H1179.49L1176.63 687.86H1173.05L1173.53 669.007L1168.76 666.314Z" fill="#B17B9D"/>
</g>
<g style="mix-blend-mode:multiply" opacity="0.5">
<path d="M1184.73 679.781L1180.44 670.085L1196.41 679.781H1184.73Z" fill="#B17B9D"/>
</g>
<path d="M1082.21 767.312L1117.02 716.14L1169.71 687.052L1223.83 698.903L1206.9 716.409L1146.11 742.803L1082.21 767.312Z" fill="#414F85"/>
<path d="M1223.83 698.903L1210.24 740.648L1181.63 805.825L1170.9 807.172L1168.76 761.656L1139.91 854.843L1112.73 887.701L1091.75 873.965L1082.21 767.312L1206.9 716.409L1223.83 698.903Z" fill="#1E0F26"/>
<g style="mix-blend-mode:multiply" opacity="0.5">
<path d="M1082.21 767.312L1134.9 747.651L1139.91 854.843L1112.73 887.701L1109.39 801.247L1100.33 804.479L1106.77 869.386L1109.39 885.546L1091.75 873.965L1082.21 767.312Z" fill="#B17B9D"/>
</g>
<g style="mix-blend-mode:multiply" opacity="0.5">
<path d="M1168.76 761.656L1168.04 731.222L1204.76 717.486L1201.9 750.614L1181.63 805.825L1170.9 807.172L1168.76 761.656Z" fill="#B17B9D"/>
</g>
<path d="M1183.3 768.658L1199.99 751.421L1236.94 752.229L1210.24 767.042L1183.3 768.658Z" fill="#414F85"/>
<path d="M1236.94 752.229L1233.37 763.002L1223.83 773.506L1212.63 820.1L1203.57 824.948L1186.16 806.095L1183.3 768.658L1236.94 752.229Z" fill="#1E0F26"/>
<g style="mix-blend-mode:multiply" opacity="0.5">
<path d="M1183.3 768.658L1211.67 760.04L1210.24 821.446L1209.29 782.394L1203.57 824.948L1186.16 806.095L1183.3 768.658Z" fill="#B17B9D"/>
</g>
<g style="mix-blend-mode:multiply" opacity="0.5">
<path d="M1223.83 773.506L1216.92 771.89L1233.37 763.003L1223.83 773.506Z" fill="#B17B9D"/>
</g>
<path d="M1167.8 732.299L1124.41 717.486L1172.1 730.683L1167.8 732.299Z" fill="#1E0F26"/>
<g style="mix-blend-mode:multiply" opacity="0.7">
<path d="M1112.73 887.701L1138.24 821.446L1157.08 799.362L1139.91 854.843L1112.73 887.701Z" fill="#903E4E"/>
</g>
<g style="mix-blend-mode:multiply" opacity="0.7">
<path d="M1223.83 773.506L1216.92 771.89L1233.37 763.003L1223.83 773.506Z" fill="#903E4E"/>
</g>
<g style="mix-blend-mode:multiply" opacity="0.7">
<path d="M1181.63 805.825L1170.9 807.172L1184.73 791.821L1185.21 798.015L1181.63 805.825Z" fill="#903E4E"/>
</g>
<g style="mix-blend-mode:multiply" opacity="0.7">
<path d="M1203.57 824.948L1209.29 782.394L1210.24 821.446L1211.2 782.394L1219.78 773.506H1223.83L1212.63 820.1L1203.57 824.948Z" fill="#903E4E"/>
</g>
<g style="mix-blend-mode:multiply" opacity="0.7">
<path d="M1123.7 841.915L1130.61 834.374L1118.93 865.347L1123.7 841.915Z" fill="#903E4E"/>
</g>
<g style="mix-blend-mode:multiply" opacity="0.5">
<path d="M1018.8 730.953L1023.09 725.297L1087.94 738.763L1078.88 739.571L1018.8 730.953Z" fill="#B17B9D"/>
</g>
<g style="mix-blend-mode:multiply" opacity="0.5">
<path d="M1010.69 729.875V722.603L1018.8 724.489L1016.65 730.683L1010.69 729.875Z" fill="#B17B9D"/>
</g>
<path d="M445.887 921.367L607.055 935.102L451.847 927.83L445.887 921.367Z" fill="#60639E"/>
<g style="mix-blend-mode:soft-light" opacity="0.5">
<path d="M515.504 1063.84L385.33 1059.53L617.307 1016.44L515.504 1063.84Z" fill="#C59281"/>
</g>
<path d="M571.531 1054.41L596.803 1037.99L589.412 1046.33L571.531 1054.41Z" fill="#60639E"/>
<g style="mix-blend-mode:multiply" opacity="0.6">
<path d="M-2.80793 865.885L273.752 885.008L445.887 921.367L451.847 927.83L607.055 935.102L792.779 968.768L625.413 1015.9L385.33 1059.53L-2.80793 1078.65V865.885Z" fill="#B17B9D"/>
</g>
<g style="mix-blend-mode:multiply" opacity="0.5">
<path d="M792.779 968.768L711.48 991.661V953.955L708.857 992.199L606.101 1019.4L607.055 935.102L792.779 968.768Z" fill="#B17B9D"/>
</g>
<g style="mix-blend-mode:multiply" opacity="0.5">
<path d="M451.847 927.83L440.642 1049.3L389.621 1058.72L409.41 913.556L427.768 917.596L409.41 1032.87L419.9 1034.21L432.059 918.404L445.887 921.367L451.847 927.83Z" fill="#B17B9D"/>
</g>
<g style="mix-blend-mode:multiply" opacity="0.5">
<path d="M304.031 1066.53L330.495 908.439L402.734 912.21L368.879 1058.72L304.031 1066.53Z" fill="#B17B9D"/>
</g>
<g style="mix-blend-mode:multiply" opacity="0.5">
<path d="M475.212 1043.1L520.749 927.83L535.292 928.908L505.967 1037.45L475.212 1043.1Z" fill="#B17B9D"/>
</g>
<path d="M455.185 950.993L509.543 957.456L491.662 963.382L455.185 950.993Z" fill="#60639E"/>
<g style="mix-blend-mode:multiply" opacity="0.5">
<path d="M491.662 963.382L469.252 1043.91L444.218 1048.49L455.185 950.723L491.662 963.382Z" fill="#B17B9D"/>
</g>
<path d="M470.205 965.267L505.252 979.81L531.716 1005.94L482.603 982.504L470.205 965.267Z" fill="#60639E"/>
<path d="M464.245 982.504L479.027 984.658L489.04 991.391L464.245 982.504Z" fill="#60639E"/>
<path d="M638.525 975.232L763.693 976.309L733.414 986.274L638.525 975.232Z" fill="#60639E"/>
<path d="M622.79 980.888L673.572 985.736L656.883 990.314L622.79 980.888Z" fill="#60639E"/>
<path d="M189.115 891.741H273.037L330.495 908.439H237.275L189.115 891.741Z" fill="#60639E"/>
<path d="M335.025 908.708L375.316 910.594L357.197 917.596L335.025 908.708Z" fill="#60639E"/>
<path d="M302.362 927.83H309.276L311.183 935.102H296.163L302.362 927.83Z" fill="#60639E"/>
<path d="M1400.5 933.486L1590.51 868.309L1608.63 885.007L1611.49 936.179L1616.5 927.83L1642.72 924.868L1677.77 943.451L1400.5 933.486Z" fill="#1E0F26"/>
<path d="M1590.51 868.309L1599.57 881.776L1577.88 933.486L1535.2 917.865L1404.79 932.14L1590.51 868.309Z" fill="#60639E"/>
<path d="M1477.98 933.486L1535.92 921.367L1552.84 927.83L1477.98 933.486Z" fill="#60639E"/>
<path d="M1642.72 924.868L1635.33 938.065L1606.49 940.219L1616.5 927.83L1642.72 924.868Z" fill="#60639E"/>
<path d="M1638.43 940.219L1652.5 936.987L1664.18 940.219H1638.43Z" fill="#60639E"/>
<path d="M1584.07 936.987L1601.72 924.868L1606.49 933.486L1584.07 936.987Z" fill="#60639E"/>
<g style="mix-blend-mode:multiply" opacity="0.5">
<path d="M1400.5 933.486L1495.15 922.175V929.716L1477.98 933.486L1477.27 936.18L1400.5 933.486Z" fill="#B17B9D"/>
</g>
<g style="mix-blend-mode:multiply" opacity="0.5">
<path d="M1599.57 881.776L1608.63 885.007L1611.49 934.294L1606.49 940.219L1604.34 941.297L1606.49 933.486L1601.72 924.868L1584.07 936.988L1582.17 939.95H1577.88V933.486L1599.57 881.776Z" fill="#B17B9D"/>
</g>
<g style="mix-blend-mode:multiply" opacity="0.5">
<path d="M1635.81 941.835L1635.33 938.065L1642.72 924.868L1661.8 935.102L1655.36 937.796L1652.5 936.987L1638.43 940.219V942.105L1635.81 941.835Z" fill="#B17B9D"/>
</g>
<g style="mix-blend-mode:multiply" opacity="0.5">
<path d="M1662.99 942.913L1664.18 940.219L1677.77 943.451L1662.99 942.913Z" fill="#B17B9D"/>
</g>
<path d="M792.779 968.768L858.343 950.993L1029.29 933.486L1139.67 910.324L1027.14 943.451L855.72 956.648L792.779 968.768Z" fill="#1E0F26"/>
<g style="mix-blend-mode:multiply" opacity="0.5">
<path d="M1029.29 933.486L1027.14 943.451L970.159 947.761L969.682 939.681L1029.29 933.486Z" fill="#B17B9D"/>
</g>
<g style="mix-blend-mode:multiply" opacity="0.5">
<path d="M951.086 949.377L947.033 941.835L962.053 940.219L966.345 947.761L951.086 949.377Z" fill="#B17B9D"/>
</g>
<g style="mix-blend-mode:multiply" opacity="0.5">
<path d="M940.834 950.184L934.159 942.643H940.357L944.41 949.377L940.834 950.184Z" fill="#B17B9D"/>
</g>
<path d="M1917.62 972L1041.92 1027.21L957.523 1032.87L743.904 1078.65H666.42L969.444 1029.1L1160.65 1012.67L1197.37 982.773L1435.07 995.162L1917.62 959.88V972Z" fill="#1E0F26"/>
<g style="mix-blend-mode:soft-light" opacity="0.5">
<path d="M1197.37 982.773L1098.66 959.611L1169.47 940.219H1288.92L1444.84 991.391L1197.37 982.773Z" fill="#C59281"/>
</g>
<g style="mix-blend-mode:soft-light" opacity="0.5">
<path d="M958.954 1030.44L919.854 1032.87L884.33 1023.71L1086.98 976.848L1160.65 1012.67L958.954 1030.44Z" fill="#C59281"/>
</g>
<path d="M828.064 1052.26L880.277 1008.9H900.304L913.417 1032.87L828.064 1052.26Z" fill="#451134"/>
<path d="M753.441 1064.38L784.673 1052.26L812.568 1044.72L821.15 1052.26L753.441 1064.38Z" fill="#451134"/>
<path d="M900.304 1008.9L886.953 1032.87L832.594 1048.49L880.277 1008.9H900.304Z" fill="#60639E"/>
<path d="M893.628 1032.06L905.311 1025.6L910.556 1030.44L893.628 1032.06Z" fill="#60639E"/>
<path d="M812.568 1044.72L818.051 1049.57L785.865 1056.3L755.348 1063.84L784.673 1052.26L812.568 1044.72Z" fill="#60639E"/>
<g style="mix-blend-mode:multiply" opacity="0.5">
<path d="M1284.15 987.352L1289.63 1008.09L1239.33 1011.86L1231.7 984.12L1284.15 987.352Z" fill="#B17B9D"/>
</g>
<g style="mix-blend-mode:multiply" opacity="0.5">
<path d="M1304.18 988.429V1007.01L1297.5 1007.55L1294.16 987.89L1304.18 988.429Z" fill="#B17B9D"/>
</g>
<g style="mix-blend-mode:multiply" opacity="0.5">
<path d="M960.384 1032.87L958.954 1030.44L1160.65 1012.67L1172.1 1003.51L1188.55 1015.9L960.384 1032.87Z" fill="#B17B9D"/>
</g>
<g style="mix-blend-mode:multiply" opacity="0.5">
<path d="M886.953 1032.87L890.29 1037.98L866.449 1043.64L864.78 1039.33L886.953 1032.87Z" fill="#B17B9D"/>
</g>
<g style="mix-blend-mode:multiply" opacity="0.5">
<path d="M1039.78 1027.48L1043.83 1022.9L1087.7 1019.13V1023.44L1039.78 1027.48Z" fill="#B17B9D"/>
</g>
<g style="mix-blend-mode:multiply" opacity="0.5">
<path d="M1093.18 1022.9L1097.95 1018.05L1134.9 1015.09L1132.28 1019.94L1093.18 1022.9Z" fill="#B17B9D"/>
</g>
<path d="M1108.44 961.766L1183.3 976.848L1214.77 983.312L1188.55 990.045L1176.63 979.272L1108.44 961.766Z" fill="#1E0F26"/>
<path d="M1225.02 983.85L1245.53 980.888L1271.75 985.466H1238.85L1225.02 983.85Z" fill="#1E0F26"/>
<path d="M958.954 1030.44L909.602 1038.79L919.854 1032.87L958.954 1030.44Z" fill="#1E0F26"/>
<path d="M879.323 1034.75L889.337 1028.83L888.145 1034.75H879.323Z" fill="#1E0F26"/>
<path d="M810.422 1051.18L818.051 1049.57L819.005 1050.37L810.422 1051.18Z" fill="#772A34"/>
<g style="mix-blend-mode:soft-light" opacity="0.5">
<path d="M858.343 950.993L967.775 925.676H1067.91L1029.29 933.486L858.343 950.993Z" fill="#C59281"/>
</g>
<path d="M811.614 946.414L848.806 933.486L878.37 938.334L852.144 944.798L811.614 946.414Z" fill="#60639E"/>
<path d="M1012.36 917.596L1022.61 916.249L1039.3 920.289H1015.93L1012.36 917.596Z" fill="#60639E"/>
<path d="M1043.83 920.289L1139.67 910.324L1066.24 924.868L1043.83 920.289Z" fill="#60639E"/>
<g style="mix-blend-mode:multiply" opacity="0.5">
<path d="M545.544 836.529V852.15L533.146 851.88L525.04 827.372L545.544 836.529Z" fill="#B17B9D"/>
</g>
<g style="mix-blend-mode:multiply" opacity="0.5">
<path d="M576.538 853.227L581.545 839.761L608.485 841.377L603.955 854.035L576.538 853.227Z" fill="#B17B9D"/>
</g>
<g style="mix-blend-mode:soft-light" opacity="0.5">
<path d="M792.779 968.768L810.66 957.726L830.449 961.496L792.779 968.768Z" fill="#C59281"/>
</g>
<path d="M1293.93 921.367L1280.81 940.219H1269.61L1161.84 895.511L1293.93 921.367Z" fill="#60639E"/>
<path d="M1139.67 910.324C1174.16 918.224 1191.57 922.264 1191.88 922.444C1192.04 922.444 1181.39 923.521 1159.94 925.676L1139.67 910.324Z" fill="#60639E"/>
<path d="M1401.93 933.486L1482.99 936.18L1385.95 949.377L1288.92 940.219L1301.32 929.985L1401.93 933.486Z" fill="#60639E"/>
<path d="M613.73 931.87L629.704 939.681L592.512 934.025L613.73 931.87Z" fill="#60639E"/>
<g style="mix-blend-mode:soft-light" opacity="0.5">
<path d="M630.658 830.334L650.446 840.838L634.472 839.491L630.658 830.334Z" fill="#C59281"/>
</g>
<path d="M1014.74 934.833L1045.74 929.985L1029.05 934.833H1014.74Z" fill="#1E0F26"/>
<path d="M1009.97 935.372L988.755 937.526L1000.2 934.833L1009.97 935.372Z" fill="#1E0F26"/>
<g style="mix-blend-mode:soft-light" opacity="0.5">
<path d="M1037.39 860.768L1053.6 853.227V868.04L1037.39 860.768Z" fill="#C59281"/>
</g>
<g style="mix-blend-mode:soft-light" opacity="0.5">
<path d="M428.96 869.925L466.629 862.384L665.705 874.773L683.347 890.125L520.749 891.741L428.96 869.925Z" fill="#C59281"/>
</g>
<g style="mix-blend-mode:soft-light" opacity="0.5">
<path d="M577.491 897.127L682.632 893.626L714.341 902.244L607.055 900.628L577.491 897.127Z" fill="#C59281"/>
</g>
<g style="mix-blend-mode:soft-light" opacity="0.5">
<path d="M738.182 850.803L771.799 839.761L879.323 859.691L738.182 850.803Z" fill="#C59281"/>
</g>
<g style="mix-blend-mode:soft-light" opacity="0.5">
<path d="M1033.82 910.324L881.231 902.244L729.838 862.384L1013.79 868.04L1055.75 886.085L1033.82 910.324Z" fill="#C59281"/>
</g>
<g style="mix-blend-mode:soft-light">
<path d="M1917.62 1078.65H1208.33L1359.49 1050.91L1917.62 1024.25V1078.65Z" fill="#A48181"/>
</g>
<g style="mix-blend-mode:multiply" opacity="0.5">
<path d="M237.275 908.439L225.593 1073L-2.80793 1078.65V865.885L217.01 880.968L217.248 891.741H190.784L204.612 897.127L196.744 1043.1L210.334 1045.26L208.427 898.474L237.275 908.439Z" fill="#B17B9D"/>
</g>
<g style="mix-blend-mode:multiply" opacity="0.5">
<path d="M235.129 891.741L236.321 882.584L273.752 885.008L272.799 891.741H235.129Z" fill="#B17B9D"/>
</g>
<path d="M95.1802 1025.6L164.559 991.391L191.738 990.314L95.1802 1025.6Z" fill="#60639E"/>
<path d="M103.763 1032.87L142.863 1025.6L133.088 1036.1H88.9814L103.763 1032.87Z" fill="#60639E"/>
<path d="M142.863 1025.6L134.995 1071.92L129.75 1072.19L133.088 1036.1L142.863 1025.6Z" fill="#430B34"/>
<path d="M1714.96 1078.65L1917.62 1036.37V1050.1L1733.08 1078.65H1714.96Z" fill="#1E0F26"/>
<g style="mix-blend-mode:multiply" opacity="0.5">
<path d="M1917.62 1036.37L1714.96 1078.65H1562.14L1917.62 1024.25V1036.37Z" fill="#B17B9D"/>
</g>
<g style="mix-blend-mode:multiply" opacity="0.5">
<path d="M1817.96 1065.46L1816.29 1057.65L1879.23 1043.37L1883.05 1054.41L1817.96 1065.46Z" fill="#B17B9D"/>
</g>
<path style="mix-blend-mode:screen" d="M1557.79 33.2143C1654.57 130 1653.86 287.857 1556.36 385.714C1458.5 483.214 1300.64 483.929 1203.86 387.143C1106.71 290 1107.43 132.5 1205.29 34.6428C1303.14 -63.2143 1460.64 -63.9286 1557.79 33.2143V33.2143Z" fill="url(#paint8_radial_2_2)"/>
<path style="mix-blend-mode:screen" d="M1483.5 98.9286C1540.64 156.071 1540.29 249.286 1482.43 307.143C1424.93 365 1331.71 365.357 1274.21 308.214C1217.07 250.714 1217.43 157.5 1275.29 99.6428C1332.79 41.7857 1426.36 41.4286 1483.5 98.9286V98.9286Z" fill="url(#paint9_radial_2_2)"/>
<path d="M1505.64 203.571C1505.64 272.857 1449.21 329.286 1379.57 329.286C1320.64 329.286 1271 288.571 1257.43 233.571C1255.05 224.048 1253.74 214.048 1253.5 203.571C1253.5 198.81 1253.74 194.167 1254.21 189.643C1261.36 126.786 1314.57 77.5 1379.57 77.5C1449.21 77.5 1505.64 133.929 1505.64 203.571V203.571Z" fill="url(#paint10_radial_2_2)"/>
<path style="mix-blend-mode:multiply" opacity="0.2" d="M1505.64 203.571C1505.64 272.857 1449.21 329.286 1379.57 329.286C1320.64 329.286 1271 288.571 1257.43 233.571C1257.67 234.048 1258.02 234.524 1258.5 235C1258.86 236.071 1259.57 237.143 1259.93 238.214C1259.93 238.929 1259.93 239.643 1260.29 240C1260.29 241.071 1261.36 241.786 1261 240.357C1261.36 241.429 1261.71 242.5 1262.07 243.929C1262.79 245.357 1263.5 247.143 1263.86 248.571C1264.21 250 1264.57 251.429 1264.93 252.857C1265.29 254.286 1266 255.357 1266.71 256.786C1268.14 260.714 1270.29 263.929 1272.79 267.143C1273.14 268.214 1273.5 269.286 1274.21 270C1274.93 271.071 1275.64 271.786 1276.36 272.857C1277.43 273.571 1278.5 274.286 1279.57 275C1280.64 275.714 1281.36 276.429 1282.43 277.143C1284.21 278.571 1286.36 278.929 1288.5 278.929C1291 278.929 1293.14 278.214 1295.64 278.571C1299.57 279.643 1300.29 285 1302.07 287.857C1303.14 289.286 1304.57 290 1306 290.357C1307.79 290.714 1309.21 291.429 1310.64 292.5C1311.71 293.214 1313.14 293.929 1314.57 293.929C1316 293.929 1315.64 293.214 1315.64 292.143C1315.64 290.357 1314.21 289.286 1313.14 287.857C1312.79 287.143 1312.43 286.071 1312.07 285.357C1311.71 284.643 1311.36 284.286 1311.71 283.929C1312.79 283.929 1313.86 284.643 1314.57 285.357C1316 286.429 1317.79 287.143 1319.93 288.214C1320.64 288.571 1321.36 288.929 1322.07 289.286C1322.43 289.643 1323.14 290.357 1323.5 290.357C1324.93 291.071 1326.71 288.929 1327.07 287.857C1327.07 286.429 1326.71 284.286 1325.64 283.571C1324.21 281.786 1322.79 280 1321.36 278.214C1319.93 276.071 1318.14 274.286 1317.07 271.786C1316 269.643 1314.93 266.786 1315.29 264.286C1315.29 262.857 1316 261.071 1316.36 259.643C1316.71 258.929 1317.07 257.857 1317.43 257.143C1318.14 256.071 1319.57 256.429 1320.29 256.429C1322.07 256.786 1324.57 256.786 1326 257.857C1327.79 258.571 1328.86 260.714 1330.64 261.071C1333.86 261.429 1336.36 258.929 1338.14 256.786C1339.93 255 1342.07 252.143 1344.57 251.429C1346 251.071 1347.43 252.143 1348.86 252.5C1349.21 252.5 1349.93 252.857 1350.64 252.857C1351.71 253.214 1352.79 252.5 1353.5 252.143C1355.64 250.714 1357.79 251.071 1359.93 251.429C1361 251.786 1362.07 252.5 1362.79 253.214C1364.21 254.167 1365.64 255.119 1367.07 256.071C1368.5 257.143 1369.93 257.857 1370.29 259.286C1370.64 260 1370.64 260.357 1370.29 261.071C1370.29 261.786 1369.93 262.5 1370.29 262.857C1370.64 263.571 1372.07 263.929 1372.79 264.286C1373.74 265 1374.69 265.833 1375.64 266.786C1377.79 268.571 1378.5 271.071 1378.86 274.286C1379.21 276.071 1378.86 277.857 1377.43 278.929C1376 280.714 1373.86 280.714 1372.43 282.143C1371.71 283.571 1371.36 285.357 1371 286.786C1371 287.857 1371 288.571 1370.64 289.643C1370.29 290.714 1369.57 291.786 1368.86 292.857C1368.5 293.571 1367.79 294.643 1367.43 295.357C1367.19 295.833 1367.07 296.429 1367.07 297.143C1366.36 298.214 1365.29 299.286 1364.21 300C1362.43 301.071 1361 302.143 1358.86 301.786C1357.79 301.786 1356.36 302.143 1355.29 302.143C1354.93 301.786 1354.93 301.786 1354.57 301.429C1354.21 301.429 1353.86 301.429 1353.14 301.071C1352.07 300.714 1351.71 300.357 1351 299.286C1350.64 298.214 1349.93 297.857 1349.21 297.143C1348.5 296.786 1347.79 296.429 1347.07 296.071C1346.36 295.714 1345.64 295.714 1345.29 295.357C1344.57 294.643 1345.29 293.929 1345.64 293.214C1346.71 291.786 1347.79 290 1349.21 288.929C1349.93 288.452 1350.64 288.095 1351.36 287.857C1352.43 287.5 1352.79 287.857 1353.86 288.214C1354.93 288.571 1354.93 289.286 1355.64 290.357C1355.29 290.714 1354.57 291.429 1353.86 291.429C1353.5 291.786 1352.43 291.786 1352.43 292.5C1354.21 293.929 1355.29 295 1357.43 293.571C1358.86 292.5 1361.36 291.071 1361.36 289.643C1361.36 288.571 1359.93 287.5 1359.21 287.143C1358.5 286.786 1357.79 286.429 1357.07 285.714C1356.36 285.357 1356 284.643 1355.64 283.929C1354.93 283.214 1354.21 282.857 1353.5 282.143C1352.79 281.786 1352.43 281.429 1351.36 281.071C1350.64 280.714 1350.29 280 1349.21 280C1348.5 279.643 1347.07 278.929 1346 279.286C1343.5 279.286 1341.36 281.429 1340.29 283.214C1339.21 284.643 1337.07 287.143 1337.79 289.286C1337.79 290 1338.86 290.357 1338.86 291.071C1339.21 291.429 1339.21 291.786 1339.57 292.143C1339.57 293.214 1339.21 294.286 1339.57 295.714C1341 298.929 1341.36 303.214 1344.93 305C1345.64 305.357 1346 305.714 1346.71 305.714C1347.07 306.071 1347.79 306.071 1348.5 306.071C1349.93 306.786 1351 307.5 1352.43 307.5C1354.1 307.738 1355.76 307.857 1357.43 307.857C1359.57 307.857 1361.71 308.214 1363.86 307.143C1364.93 306.786 1366.36 305.714 1367.07 305C1368.14 303.929 1368.14 302.5 1368.5 301.071C1368.86 300 1368.86 297.857 1369.93 297.143C1370.64 296.071 1372.07 296.071 1372.79 295C1374.21 293.929 1375.29 292.143 1376 290.357C1377.07 288.214 1378.86 286.429 1379.93 284.286C1380.64 283.214 1381.71 281.429 1382.43 280.714C1383.5 279.643 1384.93 279.286 1386 279.286C1387.43 278.929 1388.5 278.571 1389.57 278.214C1390.64 277.857 1391.71 277.5 1392.79 277.143C1393.86 276.429 1394.57 275.714 1395.29 275C1397.07 273.214 1399.21 272.857 1401.71 272.143C1402.79 272.143 1403.5 271.786 1404.21 272.143C1405.29 272.5 1406 272.857 1406.71 272.857C1407.79 273.214 1409.21 273.571 1410.29 273.571C1414.57 272.143 1411.71 268.571 1411 265.714C1409.57 260 1409.57 254.643 1409.57 248.929C1409.57 247.143 1409.57 245 1409.93 243.571C1410.29 242.857 1410.64 241.786 1410.64 241.071C1411 240.357 1411.71 240 1411.71 239.643C1412.43 238.571 1412.07 238.214 1413.14 237.857C1414.21 237.143 1415.29 237.143 1416.36 237.143C1419.93 237.143 1423.5 236.429 1426.71 237.857C1428.14 238.571 1429.21 239.286 1430.29 240.357C1431.36 241.071 1432.43 241.786 1432.43 243.571C1432.79 245.357 1433.5 247.143 1435.64 247.857C1437.07 248.214 1439.21 248.929 1441 248.929C1442.07 248.929 1443.14 248.214 1444.21 248.571C1444.57 248.571 1444.93 248.929 1445.29 248.929C1445.64 248.929 1446.36 248.571 1447.07 248.214C1448.14 247.857 1449.21 247.5 1450.64 247.5C1453.14 247.857 1453.86 246.071 1455.64 244.643C1457.43 242.857 1459.21 241.786 1461.71 241.429C1464.93 241.429 1467.43 238.929 1468.86 236.429C1471 232.5 1473.14 227.143 1471.36 222.5C1470.64 220.714 1469.21 219.643 1468.5 217.857C1467.43 216.429 1466.71 214.643 1466.36 212.857C1465.64 211.071 1464.21 209.286 1462.43 208.929C1461 208.571 1459.57 208.929 1458.5 207.857C1457.43 206.786 1456.36 205.357 1455.64 204.286C1454.57 202.5 1454.21 199.643 1454.21 197.5C1454.21 196.786 1453.86 196.786 1453.86 196.071C1453.5 195.714 1453.86 195 1453.86 194.643C1453.5 193.214 1453.14 191.429 1452.79 190C1452.43 188.214 1451.36 186.429 1451.36 184.643C1451.36 183.214 1452.43 181.786 1453.5 180.714C1454.57 180 1455.64 178.571 1456.36 177.143C1456.71 176.429 1457.43 176.071 1457.79 175C1457.79 174.286 1457.79 173.571 1457.79 172.857C1458.14 171.786 1459.21 170.714 1460.29 170.714C1461 170.357 1461.71 170.714 1462.79 170.714C1463.86 170.357 1464.93 169.643 1465.64 168.929C1467.07 167.143 1466.71 163.929 1466.71 161.429C1466.71 158.929 1464.93 157.857 1463.5 156.071C1462.43 153.929 1461.71 151.071 1463.14 149.286C1463.86 148.571 1464.57 148.214 1464.93 147.143C1465.29 146.071 1464.57 144.643 1464.21 143.571C1463.5 141.905 1462.43 140.357 1461 138.929C1460.29 138.214 1460.29 137.5 1459.93 136.786C1459.21 135.714 1458.86 135 1458.14 133.929C1457.79 133.214 1457.43 132.5 1457.07 131.786C1456.71 131.429 1456.36 131.071 1456 130.714C1455.29 129.643 1453.86 129.286 1453.14 128.214C1452.43 127.143 1451.71 126.071 1451.36 125C1450.64 123.929 1450.64 122.857 1450.64 121.786C1450.64 120.357 1449.93 119.286 1449.21 117.857C1448.86 117.5 1448.5 116.786 1447.79 116.429C1447.07 115.714 1446.71 114.643 1446 113.571C1445.29 112.857 1444.21 112.143 1443.5 111.786C1443.14 111.429 1442.79 111.429 1442.43 111.429C1441.71 111.429 1440.64 112.5 1440.29 112.857C1439.21 113.929 1437.79 114.643 1436 115C1434.57 115.476 1433.14 115.952 1431.71 116.429C1429.57 116.786 1427.79 116.786 1425.64 117.5C1423.14 118.214 1420.64 118.571 1419.21 121.071C1418.5 123.214 1418.86 125.357 1418.86 127.5C1418.86 128.214 1418.86 128.929 1418.86 129.643C1419.21 130.714 1419.57 131.429 1419.93 132.5C1420.29 135.357 1419.57 138.214 1418.5 141.071C1417.79 143.571 1416 145.714 1413.86 147.5C1411.36 150 1407.07 150 1403.86 151.429C1401.71 152.143 1398.5 153.571 1398.14 156.071C1397.43 158.214 1398.5 159.286 1398.86 161.071C1399.21 162.143 1398.86 163.571 1399.21 164.643C1399.57 165.714 1399.21 166.786 1398.14 167.5C1397.43 168.214 1396.71 168.571 1396.36 169.286C1396.36 170 1396.36 170.357 1396.36 170.714C1396.36 171.786 1395.29 172.143 1394.57 172.5C1393.5 172.857 1392.07 172.857 1390.64 173.571C1389.57 174.286 1389.21 175.357 1387.79 175.714C1386.71 176.071 1386 175.714 1384.93 175.714C1383.14 175.357 1381.36 175.357 1379.57 175C1376.36 174.286 1373.14 173.929 1369.93 173.929C1367.43 174.286 1366 175 1363.5 173.214C1362.07 172.5 1360.29 171.429 1358.86 170.714C1356.71 169.643 1354.93 168.929 1352.79 168.214C1349.93 167.143 1347.07 166.429 1343.86 165.714C1341 164.643 1338.86 162.143 1336.36 160C1334.57 157.857 1332.43 155.357 1331.71 152.143C1331.36 150.357 1331.71 148.929 1331.71 147.143C1332.43 142.857 1330.29 138.929 1331 134.643C1331.71 130.357 1332.07 125.714 1333.86 121.786C1334.57 120 1336 118.571 1336.71 116.786C1337.79 115 1339.57 114.286 1341.36 113.214C1342.43 112.857 1344.21 112.143 1345.64 112.143C1347.43 112.143 1346.71 113.214 1347.43 114.286C1347.79 115.357 1348.5 115.714 1349.21 116.429C1351 117.857 1352.79 116.429 1354.57 115.714C1356 114.643 1358.5 112.5 1360.64 113.214C1362.43 113.571 1363.86 114.286 1365.29 113.214C1366.36 112.5 1367.07 111.071 1366.36 109.643C1365.29 107.5 1362.07 107.5 1359.93 107.5C1357.43 107.5 1354.93 107.5 1352.43 107.857C1350.64 108.214 1349.21 108.571 1347.79 108.214C1346 107.857 1344.57 106.786 1343.14 106.071C1340.29 105 1338.14 106.071 1335.64 107.143C1332.79 108.214 1329.93 110.357 1328.5 113.214C1327.43 115.714 1327.79 118.571 1327.79 121.071C1327.43 122.5 1327.43 123.571 1327.07 125C1326.36 126.786 1325.29 128.214 1323.86 129.643C1322.07 132.143 1321 135 1321.36 138.214C1321.71 139.643 1321.71 140.357 1321 141.786C1320.29 142.857 1319.57 143.929 1319.21 145C1318.86 146.429 1319.57 146.429 1320.64 147.143C1321.36 147.857 1322.43 149.286 1322.79 150.714C1323.5 153.571 1321.71 156.786 1319.21 158.571C1317.79 159.643 1315.64 160 1314.57 161.786C1313.86 162.738 1313.26 163.69 1312.79 164.643C1311.71 166.429 1310.64 167.143 1308.86 167.857C1307.07 168.571 1305.29 168.929 1303.86 170.357C1302.79 171.071 1302.79 171.786 1302.07 172.857C1301.36 174.286 1300.64 176.071 1299.57 177.5C1298.86 178.929 1298.14 180 1296.71 180.714C1294.93 181.786 1293.14 182.857 1291.36 183.929C1289.57 185 1288.14 186.786 1286.71 188.214C1284.93 190 1282.79 190.714 1280.64 191.071C1277.07 192.143 1273.5 192.857 1269.93 193.571C1267.07 193.929 1264.21 193.571 1261.36 192.5C1258.98 191.786 1256.6 190.833 1254.21 189.643C1261.36 126.786 1314.57 77.5 1379.57 77.5C1449.21 77.5 1505.64 133.929 1505.64 203.571V203.571Z" fill="url(#paint11_linear_2_2)"/>
</g>
<defs>
<linearGradient id="paint0_linear_2_2" x1="-3852.02" y1="369173" x2="-3852.02" y2="0" gradientUnits="userSpaceOnUse">
<stop stop-color="#54CCC3"/>
<stop offset="0.5" stop-color="#2845B7"/>
<stop offset="1" stop-color="#000433"/>
</linearGradient>
<linearGradient id="paint1_linear_2_2" x1="1288" y1="1292" x2="1636" y2="-308" gradientUnits="userSpaceOnUse">
<stop stop-color="#74FFFF"/>
<stop offset="1" stop-color="#C4C4C4" stop-opacity="0"/>
</linearGradient>
<linearGradient id="paint2_linear_2_2" x1="-768.354" y1="303878" x2="-768.354" y2="0" gradientUnits="userSpaceOnUse">
<stop stop-color="#1D0B2E"/>
<stop offset="0.4" stop-color="#25264A"/>
<stop offset="1" stop-color="#3B4879"/>
</linearGradient>
<linearGradient id="paint3_linear_2_2" x1="25279.2" y1="34542.4" x2="25279.2" y2="30835.4" gradientUnits="userSpaceOnUse">
<stop stop-color="#1F083D"/>
<stop offset="1" stop-color="#311B4D"/>
</linearGradient>
<linearGradient id="paint4_linear_2_2" x1="5496.11" y1="14223.3" x2="5496.11" y2="13672.5" gradientUnits="userSpaceOnUse">
<stop stop-color="#1F083D"/>
<stop offset="1" stop-color="#311B4D"/>
</linearGradient>
<linearGradient id="paint5_linear_2_2" x1="2427.73" y1="12351.2" x2="2427.73" y2="11976.2" gradientUnits="userSpaceOnUse">
<stop stop-color="#1F083D"/>
<stop offset="1" stop-color="#311B4D"/>
</linearGradient>
<linearGradient id="paint6_linear_2_2" x1="18434.7" y1="18410.9" x2="18434.7" y2="17355" gradientUnits="userSpaceOnUse">
<stop stop-color="#1F083D"/>
<stop offset="1" stop-color="#311B4D"/>
</linearGradient>
<linearGradient id="paint7_linear_2_2" x1="-2883.45" y1="181302" x2="-2883.45" y2="105739" gradientUnits="userSpaceOnUse">
<stop stop-color="#1D0B2E"/>
<stop offset="0.4" stop-color="#25264A"/>
<stop offset="1" stop-color="#3B4879"/>
</linearGradient>
<radialGradient id="paint8_radial_2_2" cx="0" cy="0" r="1" gradientUnits="userSpaceOnUse" gradientTransform="translate(35975.6 34854.9) scale(31803.4)">
<stop stop-color="#0EABFF"/>
<stop offset="1"/>
</radialGradient>
<radialGradient id="paint9_radial_2_2" cx="0" cy="0" r="1" gradientUnits="userSpaceOnUse" gradientTransform="translate(21667.7 20160) scale(11101.4 11113.2)">
<stop stop-color="#74FFFF"/>
<stop offset="1"/>
</radialGradient>
<radialGradient id="paint10_radial_2_2" cx="0" cy="0" r="1" gradientUnits="userSpaceOnUse" gradientTransform="translate(13305.9 13094.8) scale(14296.5 14276.3)">
<stop stop-color="#FEE0FF"/>
<stop offset="1" stop-color="#F7FFFF"/>
</radialGradient>
<linearGradient id="paint11_linear_2_2" x1="9425.64" y1="26112.1" x2="9425.64" y2="8361.25" gradientUnits="userSpaceOnUse">
<stop stop-color="#E8DDFF"/>
<stop offset="1" stop-color="#AA8AD8"/>
</linearGradient>
<clipPath id="clip0_2_2">
<rect width="1920" height="1080" fill="white"/>
</clipPath>
</defs>
</svg>
