<svg version="1.2" xmlns="http://www.w3.org/2000/svg" viewBox="0 0 140 140" width="140" height="140"><defs><linearGradient id="P" gradientUnits="userSpaceOnUse"/><radialGradient id="g1" cx="69.9" cy="70" r="63.8" href="#P"><stop stop-color="#0eabff"/><stop offset="1"/></radialGradient><radialGradient id="g2" cx="69.4" cy="68.2" r="37.7" href="#P"><stop stop-color="#74ffff"/><stop offset="1"/></radialGradient><radialGradient id="g3" cx="47.8" cy="51.7" r="56.7" href="#P"><stop stop-color="#fee0ff"/><stop offset="1" stop-color="#f7ffff"/></radialGradient><linearGradient id="g4" x1="32.5" y1="103.4" x2="32.5" y2="32.9" href="#P"><stop stop-color="#e8ddff"/><stop offset="1" stop-color="#aa8ad8"/></linearGradient></defs><style>.A{mix-blend-mode:screen;fill:url(#g1)}.B{mix-blend-mode:screen;fill:url(#g2)}.C{fill:url(#g3)}.D{opacity:.2;mix-blend-mode:multiply;fill:url(#g4)}</style><path class="A" d="m119.5 20.5c27.1 27.1 26.9 71.3-0.4 98.7c-27.4 27.3-71.6 27.5-98.7 0.4c-27.2-27.2-27-71.3 0.4-98.7c27.4-27.4 71.5-27.6 98.7-0.4z"/><path class="B" d="m98.7 38.9c16 16 15.9 42.1-0.3 58.3c-16.1 16.2-42.2 16.3-58.3 0.3c-16-16.1-15.9-42.2 0.3-58.4c16.1-16.2 42.3-16.3 58.3-0.2z"/><path class="C" d="m104.9 68.2c0 19.4-15.8 35.2-35.3 35.2c-16.5 0-30.4-11.4-34.2-26.8q-1-4-1.1-8.4q0-2 0.2-3.9c2-17.6 16.9-31.4 35.1-31.4c19.5 0 35.3 15.8 35.3 35.3z"/><path class="D" d="m104.9 68.2c0 19.4-15.8 35.2-35.3 35.2c-16.5 0-30.4-11.4-34.2-26.8q0.1 0.2 0.3 0.4c0.1 0.3 0.3 0.6 0.4 0.9c0 0.2 0 0.4 0.1 0.5c0 0.3 0.3 0.5 0.2 0.1c0.1 0.3 0.2 0.6 0.3 1c0.2 0.4 0.4 0.9 0.5 1.3c0.1 0.4 0.2 0.8 0.3 1.2c0.1 0.4 0.3 0.7 0.5 1.1c0.4 1.1 1 2 1.7 2.9c0.1 0.3 0.2 0.6 0.4 0.8c0.2 0.3 0.4 0.5 0.6 0.8c0.3 0.2 0.6 0.4 0.9 0.6c0.3 0.2 0.5 0.4 0.8 0.6c0.5 0.4 1.1 0.5 1.7 0.5c0.7 0 1.3-0.2 2-0.1c1.1 0.3 1.3 1.8 1.8 2.6c0.3 0.4 0.7 0.6 1.1 0.7c0.5 0.1 0.9 0.3 1.3 0.6c0.3 0.2 0.7 0.4 1.1 0.4c0.4 0 0.3-0.2 0.3-0.5c0-0.5-0.4-0.8-0.7-1.2c-0.1-0.2-0.2-0.5-0.3-0.7c-0.1-0.2-0.2-0.3-0.1-0.4c0.3 0 0.6 0.2 0.8 0.4c0.4 0.3 0.9 0.5 1.5 0.8c0.2 0.1 0.4 0.2 0.6 0.3c0.1 0.1 0.3 0.3 0.4 0.3c0.4 0.2 0.9-0.4 1-0.7c0-0.4-0.1-1-0.4-1.2c-0.4-0.5-0.8-1-1.2-1.5c-0.4-0.6-0.9-1.1-1.2-1.8c-0.3-0.6-0.6-1.4-0.5-2.1c0-0.4 0.2-0.9 0.3-1.3c0.1-0.2 0.2-0.5 0.3-0.7c0.2-0.3 0.6-0.2 0.8-0.2c0.5 0.1 1.2 0.1 1.6 0.4c0.5 0.2 0.8 0.8 1.3 0.9c0.9 0.1 1.6-0.6 2.1-1.2c0.5-0.5 1.1-1.3 1.8-1.5c0.4-0.1 0.8 0.2 1.2 0.3c0.1 0 0.3 0.1 0.5 0.1c0.3 0.1 0.6-0.1 0.8-0.2c0.6-0.4 1.2-0.3 1.8-0.2c0.3 0.1 0.6 0.3 0.8 0.5q0.6 0.4 1.2 0.8c0.4 0.3 0.8 0.5 0.9 0.9c0.1 0.2 0.1 0.3 0 0.5c0 0.2-0.1 0.4 0 0.5c0.1 0.2 0.5 0.3 0.7 0.4q0.4 0.3 0.8 0.7c0.6 0.5 0.8 1.2 0.9 2.1c0.1 0.5 0 1-0.4 1.3c-0.4 0.5-1 0.5-1.4 0.9c-0.2 0.4-0.3 0.9-0.4 1.3c0 0.3 0 0.5-0.1 0.8c-0.1 0.3-0.3 0.6-0.5 0.9c-0.1 0.2-0.3 0.5-0.4 0.7q-0.1 0.2-0.1 0.5c-0.2 0.3-0.5 0.6-0.8 0.8c-0.5 0.3-0.9 0.6-1.5 0.5c-0.3 0-0.7 0.1-1 0.1c-0.1-0.1-0.1-0.1-0.2-0.2c-0.1 0-0.2 0-0.4-0.1c-0.3-0.1-0.4-0.2-0.6-0.5c-0.1-0.3-0.3-0.4-0.5-0.6c-0.2-0.1-0.4-0.2-0.6-0.3c-0.2-0.1-0.4-0.1-0.5-0.2c-0.2-0.2 0-0.4 0.1-0.6c0.3-0.4 0.6-0.9 1-1.2q0.3-0.2 0.6-0.3c0.3-0.1 0.4 0 0.7 0.1c0.3 0.1 0.3 0.3 0.5 0.6c-0.1 0.1-0.3 0.3-0.5 0.3c-0.1 0.1-0.4 0.1-0.4 0.3c0.5 0.4 0.8 0.7 1.4 0.3c0.4-0.3 1.1-0.7 1.1-1.1c0-0.3-0.4-0.6-0.6-0.7c-0.2-0.1-0.4-0.2-0.6-0.4c-0.2-0.1-0.3-0.3-0.4-0.5c-0.2-0.2-0.4-0.3-0.6-0.5c-0.2-0.1-0.3-0.2-0.6-0.3c-0.2-0.1-0.3-0.3-0.6-0.3c-0.2-0.1-0.6-0.3-0.9-0.2c-0.7 0-1.3 0.6-1.6 1.1c-0.3 0.4-0.9 1.1-0.7 1.7c0 0.2 0.3 0.3 0.3 0.5c0.1 0.1 0.1 0.2 0.2 0.3c0 0.3-0.1 0.6 0 1c0.4 0.9 0.5 2.1 1.5 2.6c0.2 0.1 0.3 0.2 0.5 0.2c0.1 0.1 0.3 0.1 0.5 0.1c0.4 0.2 0.7 0.4 1.1 0.4q0.7 0.1 1.4 0.1c0.6 0 1.2 0.1 1.8-0.2c0.3-0.1 0.7-0.4 0.9-0.6c0.3-0.3 0.3-0.7 0.4-1.1c0.1-0.3 0.1-0.9 0.4-1.1c0.2-0.3 0.6-0.3 0.8-0.6c0.4-0.3 0.7-0.8 0.9-1.3c0.3-0.6 0.8-1.1 1.1-1.7c0.2-0.3 0.5-0.8 0.7-1c0.3-0.3 0.7-0.4 1-0.4c0.4-0.1 0.7-0.2 1-0.3c0.3-0.1 0.6-0.2 0.9-0.3c0.3-0.2 0.5-0.4 0.7-0.6c0.5-0.5 1.1-0.6 1.8-0.8c0.3 0 0.5-0.1 0.7 0c0.3 0.1 0.5 0.2 0.7 0.2c0.3 0.1 0.7 0.2 1 0.2c1.2-0.4 0.4-1.4 0.2-2.2c-0.4-1.6-0.4-3.1-0.4-4.7c0-0.5 0-1.1 0.1-1.5c0.1-0.2 0.2-0.5 0.2-0.7c0.1-0.2 0.3-0.3 0.3-0.4c0.2-0.3 0.1-0.4 0.4-0.5c0.3-0.2 0.6-0.2 0.9-0.2c1 0 2-0.2 2.9 0.2c0.4 0.2 0.7 0.4 1 0.7c0.3 0.2 0.6 0.4 0.6 0.9c0.1 0.5 0.3 1 0.9 1.2c0.4 0.1 1 0.3 1.5 0.3c0.3 0 0.6-0.2 0.9-0.1c0.1 0 0.2 0.1 0.3 0.1c0.1 0 0.3-0.1 0.5-0.2c0.3-0.1 0.6-0.2 1-0.2c0.7 0.1 0.9-0.4 1.4-0.8c0.5-0.5 1-0.8 1.7-0.9c0.9 0 1.6-0.7 2-1.4c0.6-1.1 1.2-2.6 0.7-3.9c-0.2-0.5-0.6-0.8-0.8-1.3c-0.3-0.4-0.5-0.9-0.6-1.4c-0.2-0.5-0.6-1-1.1-1.1c-0.4-0.1-0.8 0-1.1-0.3c-0.3-0.3-0.6-0.7-0.8-1c-0.3-0.5-0.4-1.3-0.4-1.9c0-0.2-0.1-0.2-0.1-0.4c-0.1-0.1 0-0.3 0-0.4c-0.1-0.4-0.2-0.9-0.3-1.3c-0.1-0.5-0.4-1-0.4-1.5c0-0.4 0.3-0.8 0.6-1.1c0.3-0.2 0.6-0.6 0.8-1c0.1-0.2 0.3-0.3 0.4-0.6c0-0.2 0-0.4 0-0.6c0.1-0.3 0.4-0.6 0.7-0.6c0.2-0.1 0.4 0 0.7 0c0.3-0.1 0.6-0.3 0.8-0.5c0.4-0.5 0.3-1.4 0.3-2.1c0-0.7-0.5-1-0.9-1.5c-0.3-0.6-0.5-1.4-0.1-1.9c0.2-0.2 0.4-0.3 0.5-0.6c0.1-0.3-0.1-0.7-0.2-1q-0.3-0.7-0.9-1.3c-0.2-0.2-0.2-0.4-0.3-0.6c-0.2-0.3-0.3-0.5-0.5-0.8c-0.1-0.2-0.2-0.4-0.3-0.6c-0.1-0.1-0.2-0.2-0.3-0.3c-0.2-0.3-0.6-0.4-0.8-0.7c-0.2-0.3-0.4-0.6-0.5-0.9c-0.2-0.3-0.2-0.6-0.2-0.9c0-0.4-0.2-0.7-0.4-1.1c-0.1-0.1-0.2-0.3-0.4-0.4c-0.2-0.2-0.3-0.5-0.5-0.8c-0.2-0.2-0.5-0.4-0.7-0.5c-0.1-0.1-0.2-0.1-0.3-0.1c-0.2 0-0.5 0.3-0.6 0.4c-0.3 0.3-0.7 0.5-1.2 0.6q-0.6 0.2-1.2 0.4c-0.6 0.1-1.1 0.1-1.7 0.3c-0.7 0.2-1.4 0.3-1.8 1c-0.2 0.6-0.1 1.2-0.1 1.8c0 0.2 0 0.4 0 0.6c0.1 0.3 0.2 0.5 0.3 0.8c0.1 0.8-0.1 1.6-0.4 2.4c-0.2 0.7-0.7 1.3-1.3 1.8c-0.7 0.7-1.9 0.7-2.8 1.1c-0.6 0.2-1.5 0.6-1.6 1.3c-0.2 0.6 0.1 0.9 0.2 1.4c0.1 0.3 0 0.7 0.1 1c0.1 0.3 0 0.6-0.3 0.8c-0.2 0.2-0.4 0.3-0.5 0.5c0 0.2 0 0.3 0 0.4c0 0.3-0.3 0.4-0.5 0.5c-0.3 0.1-0.7 0.1-1.1 0.3c-0.3 0.2-0.4 0.5-0.8 0.6c-0.3 0.1-0.5 0-0.8 0c-0.5-0.1-1-0.1-1.5-0.2c-0.9-0.2-1.8-0.3-2.7-0.3c-0.7 0.1-1.1 0.3-1.8-0.2c-0.4-0.2-0.9-0.5-1.3-0.7c-0.6-0.3-1.1-0.5-1.7-0.7c-0.8-0.3-1.6-0.5-2.5-0.7c-0.8-0.3-1.4-1-2.1-1.6c-0.5-0.6-1.1-1.3-1.3-2.2c-0.1-0.5 0-0.9 0-1.4c0.2-1.2-0.4-2.3-0.2-3.5c0.2-1.2 0.3-2.5 0.8-3.6c0.2-0.5 0.6-0.9 0.8-1.4c0.3-0.5 0.8-0.7 1.3-1c0.3-0.1 0.8-0.3 1.2-0.3c0.5 0 0.3 0.3 0.5 0.6c0.1 0.3 0.3 0.4 0.5 0.6c0.5 0.4 1 0 1.5-0.2c0.4-0.3 1.1-0.9 1.7-0.7c0.5 0.1 0.9 0.3 1.3 0c0.3-0.2 0.5-0.6 0.3-1c-0.3-0.6-1.2-0.6-1.8-0.6c-0.7 0-1.4 0-2.1 0.1c-0.5 0.1-0.9 0.2-1.3 0.1c-0.5-0.1-0.9-0.4-1.3-0.6c-0.8-0.3-1.4 0-2.1 0.3c-0.8 0.3-1.6 0.9-2 1.7c-0.3 0.7-0.2 1.5-0.2 2.2c-0.1 0.4-0.1 0.7-0.2 1.1c-0.2 0.5-0.5 0.9-0.9 1.3c-0.5 0.7-0.8 1.5-0.7 2.4c0.1 0.4 0.1 0.6-0.1 1c-0.2 0.3-0.4 0.6-0.5 0.9c-0.1 0.4 0.1 0.4 0.4 0.6c0.2 0.2 0.5 0.6 0.6 1c0.2 0.8-0.3 1.7-1 2.2c-0.4 0.3-1 0.4-1.3 0.9q-0.3 0.4-0.5 0.8c-0.3 0.5-0.6 0.7-1.1 0.9c-0.5 0.2-1 0.3-1.4 0.7c-0.3 0.2-0.3 0.4-0.5 0.7c-0.2 0.4-0.4 0.9-0.7 1.3c-0.2 0.4-0.4 0.7-0.8 0.9c-0.5 0.3-1 0.6-1.5 0.9c-0.5 0.3-0.9 0.8-1.3 1.2c-0.5 0.5-1.1 0.7-1.7 0.8c-1 0.3-2 0.5-3 0.7c-0.8 0.1-1.6 0-2.4-0.3q-1-0.3-2-0.8c2-17.6 16.9-31.4 35.1-31.4c19.5 0 35.3 15.8 35.3 35.3z"/></svg>