<svg version="1.2" xmlns="http://www.w3.org/2000/svg" viewBox="0 0 807 401" width="807" height="401"><defs><linearGradient id="P" gradientUnits="userSpaceOnUse"/><linearGradient id="g1" x1="-1" y1="335.9" x2="-1" y2="0" href="#P"><stop offset="0" stop-color="#1d0b2e"/><stop offset=".4" stop-color="#25264a"/><stop offset="1" stop-color="#3b4879"/></linearGradient><linearGradient id="g2" x1="100.5" y1="337.6" x2="100.5" y2="300.5" href="#P"><stop offset="0" stop-color="#1f083d"/><stop offset="1" stop-color="#311b4d"/></linearGradient><linearGradient id="g3" x1="67.2" y1="346.1" x2="67.2" y2="331.8" href="#P"><stop offset="0" stop-color="#1f083d"/><stop offset="1" stop-color="#311b4d"/></linearGradient><linearGradient id="g4" x1="49.9" y1="359.2" x2="49.9" y2="347.4" href="#P"><stop offset="0" stop-color="#1f083d"/><stop offset="1" stop-color="#311b4d"/></linearGradient><linearGradient id="g5" x1="217.8" y1="329.6" x2="217.8" y2="309.8" href="#P"><stop offset="0" stop-color="#1f083d"/><stop offset="1" stop-color="#311b4d"/></linearGradient><linearGradient id="g6" x1="-1.5" y1="400.5" x2="-1.5" y2="233" href="#P"><stop offset="0" stop-color="#1d0b2e"/><stop offset=".4" stop-color="#25264a"/><stop offset="1" stop-color="#3b4879"/></linearGradient></defs><style>.A{fill:url(#g1)}.B{opacity:.8;fill:#1e0f26}.C{mix-blend-mode:soft-light;fill:#a2a4d4}.D{opacity:.6;mix-blend-mode:multiply;fill:#724777}.E{opacity:.5;mix-blend-mode:multiply;fill:#724777}.F{mix-blend-mode:soft-light;fill:#775047}.G{mix-blend-mode:soft-light;fill:#a48181}.H{opacity:.5;mix-blend-mode:soft-light;fill:#c59281}.I{fill:#392f66}.J{fill:#39396e}.K{fill:#5b5277}.L{opacity:.8;fill:#13031b}.M{opacity:.2;mix-blend-mode:multiply;fill:#724777}.N{opacity:.5;mix-blend-mode:soft-light;fill:#a48181}.O{fill:url(#g2)}.P{fill:#4d436b}.Q{fill:url(#g3)}.R{fill:url(#g4)}.S{fill:url(#g5)}.T{fill:#6090cc}.U{fill:#1e0f26}.V{fill:#60639e}.W{fill:#91bffa}.X{fill:url(#g6)}.Y{opacity:.5;fill:#542e74}.Z{opacity:.5;mix-blend-mode:multiply;fill:#b17b9d}.a{fill:#414f85}.b{opacity:.7;mix-blend-mode:multiply;fill:#903e4e}.c{opacity:.6;mix-blend-mode:multiply;fill:#b17b9d}.d{fill:#451134}.e{fill:#772a34}.f{fill:#430b34}</style><path class="A" d="m132.4 323.9l-18.1 1.7l-113.3 10.3v-335.9h130.5l61.3 95.2l-1.9 37.2l23.1 15.9l49.9 82.7l52.6 34.5l6.1 41.1z"/><path class="B" d="m190.9 132.4l3.3 2.2l-2.4 0.2l-18.1 21.4l-5.3 1.5l-22.6 6.1l-9.1 10.7l-9.9 20.8l-10.2 25l2.9-9.1l15.4-38.9l10.4-10.6l24.7-8.4l17.7-21.8l4.1-17z"/><path class="C" d="m214 148.3l-11 14.4h-8.8l-20.5-6.5l18.1-21.4l2.4-0.2z"/><path class="C" d="m168.4 157.7l13.8 6.1l68 56.5l-46.2 10.7l-58.2-67.2z"/><path class="C" d="m316.5 265.5l-93.4 24.8l-88.2-59.3l69.1 8l59.9-8z"/><path fill-rule="evenodd" class="D" d="m322.6 306.6l-321.6 29.3v-148.4l48 25.1l85.9 18.4l38.8 26.1l49.4 33.2l4.4 22.2zm-267.9-119.1h-53.7v-170.5l96.5 55l58 36l37.3-12.8l-1.9 37.2l-17.2 23.8l-27.9 7.6l58.2 67.2v8l-69.2-8zm-34.1-92.6l68.5 47l52.9-21.3l-10.1-21l-77.2-47l-29.6-3.7h-9.4z"/><path class="E" d="m182.3 163.8l-13.9-6.1l5.3-1.5l20.5 6.5h8.8l15.9 31.6z"/><path class="E" d="m89 142l-34.3 45.6h-53.7v-170.6l71.3 40.7l83.2 50.3l-20.6 48.2l7-35.5l-10.1-21l-77.1-47l-34.2-3.7h-4.8l4.8 46z"/><path class="F" d="m1 335.9v-58.3l28 2.7l2.5 47.6h4.2v-5.9l19-2.7l1.7 8.6h1.3v-10.5l2.5-1.7l0.8 6.3h4l0.4-13.4l13.5-0.7l1.5 14.1h2.2v-4.1l37.1-1.7l12.1-1.5v-9.1l1.6-40.1l6.3-4.9v41.5h2.2l3.9-47.6l22.6 6.1l3.2 55.4l3.6 0.2v-25.9h1.7l1.8 25.9h7l-2.7-43h7.9l1.8 39.9h6.7v-4.7h11.7l2.4 4.7h11.9v-5.2l23.3-2.6l5.3 5.5l2.7-1v-4.5h4.6v3.1l5.4-0.5v-9.8l5.8-1.3l1 9.8l20.2-1.1l2-14.8l3.1-0.8v10.6h1.5v-14.7l4.1-1.1l-0.5 7.9l6.4-0.9v-2.5l9.3-2.6l3 20z"/><path class="E" d="m49 212.6l16 77v40.4l-64 5.9v-148.3z"/><path class="E" d="m223.1 290.3l2.6 25.9l-97.5 8.1l3.6-18.7l3.1-74.6z"/><path class="C" d="m1 0h130.5l61.3 95.2l-37.3 12.8l-154.5-91z"/><path class="G" d="m230.3 235.5l70 34.3v38.8h-9.6l-2-26.7l-5.7 3.7l2.8 23.3l-31.8 1.9l-3.8-27.7l-43.9-24.4l7.7-1.7l21.2 7.3h8.8l-40-13.2l14.8-0.4l42.2 13.6l8-2.6l-50.2-24.7z"/><path class="H" d="m225.7 235.5l-1.2-9.2l-50.8-56.3l5-0.3l40.1 37.3l4.4-1.5l-44.5-40.5l-18.6-5.1l8.3-2.2l13.9 6.1l63.1 57.6l0.9 12l64.1 33.7l4.1 40.8h-6.7v-40.1l-64-34.1z"/><path class="I" d="m207 279.4l25.7 8.3l-9.2 6.1z"/><path class="I" d="m69 216.9l-18.4 3.4l-14.9-14.6z"/><path class="J" d="m200.7 227l10.4 2.4l-7.1 7.1z"/><path class="K" d="m94.1 139.9l-8.6 6.7l-4.2-11.1z"/><path class="K" d="m160.1 106.4l-5.5 3.8l-4.2-5.2z"/><path class="E" d="m20.5 95l-10.8 33l6 7.5l17.3 27.2l-22.5-29.7l-3.8-5v-32.5l9-46.5z"/><path class="L" d="m61.7 177l3.3 1.7l51.6-4.6l9-10l10.3-13.3l-1 5.4l-18.3 19.1l-58.1 7.2l-14-12z"/><path class="M" d="m65 289.6l66.8 16l-3.6 18.7l-63.2 5.7z"/><path class="N" d="m65 330l-0.6-43.4l-13.8-66.3l-8.4-20.3h3.8l11.3 5.7h2.6l-5.2-2.2l3.8-0.7l20.3 9.2l7.4-0.3l-32-16.3l5.3-0.7l43 22.7l8.2 0.5l24.2 13.1l-1.1 26.7h-3.9l-1.7-23.7l-5.5-0.4l-3.1 50.3h-11l0.5-38.7l-1.4-0.6l0.3 12l-3.4-0.2l-2.1-25.4h-5.4l2.3 95.3z"/><path class="G" d="m85.5 204.3l12.9-26.8l18.2-46.6l-98.2-56.3l-0.7-6.6l55 34.3l27.5 14.9l5-2.7l-52.9-29l2.2-3l60.2 35.5l4-0.8l-24.6-16.5l13.2-5.2l25.7 19h1.9l-8.4-12.2h6.6l8.8 18.4l-6 30.1l-12.5 15.8l8.6-32h-3.8l-7.9 35.4l-3.7 4.1l-12.8 1.2l-13.6 33.2z"/><path class="H" d="m69.5 0l108.8 91.5l2.4-0.8l-60.7-59.7l1.5-1.6l59.5 58.5l6.7 9.1l-4.6 40l-2.6 3.4v-28.3l-3.8 2.4l-6.7 38.8l-8.2 2.8l6.6-53.8l-116.1-102.3z"/><path class="H" d="m191.8 134.8l2.4-0.2l19.8 13.7l15.3 25.4l-2 1.6l-6.7-13.7l-1.7 0.1l18.4 38.3h-2.6l-23.6-47.9l-29.3-5.5z"/><path class="H" d="m26 187.6l55.3 32.7l8.9 70l-1.6 37.6h-3.1l3.1-36.1l-9.6-71.5l-56.3-32.7z"/><path class="H" d="m251 313.1l1.2-9.6l-3.1-19.8l-104.7-51.4h2l103.8 50.8l4.1 30z"/><path class="M" d="m116.6 220.3l20.1-45.8l9.1-10.7l54.9 63.2l3.3 9.5v2.5l-69.1-8z"/><path class="K" d="m204 161.4v3.3l-9.8-2z"/><path class="N" d="m45.6 171.5l13.1 8.2l14 1l-14.2 1.8z"/><path class="N" d="m116.6 174.7l3.7-3.2l-3.7 4.9h-9.4z"/><path class="M" d="m20.5 95l61.5 42.2l3.5 9.4l-23.8 30.4l-17.2-6.5l-11.5-7.8l-23.3-34.7z"/><path class="O" d="m102.5 330l17.5-19.6l35.5-9.9l38.7 9.3l12.8 20.2l-58.5 7.6z"/><path class="E" d="m120 310.4l51.6 5.6l22.6-6.2l12.8 20.2l-58.5 7.6l-46-7.6z"/><path class="E" d="m171.6 316l-23.1 21.6l-46-7.6l17.5-19.6z"/><path class="P" d="m164.9 315.3l10.3-0.3l-6.5 2.8z"/><path class="G" d="m144.4 303.5l46.6 7.3l1.2 21.2l-10 1.2v-20.1l-44-7.8z"/><path class="Q" d="m69.2 346.1l1.6-12.2l15.4-2.1l16.3 8.2l-5.5 6.1h-22.3z"/><path class="E" d="m70.8 333.9l11.2 7.6l20.5-1.5l-5.5 6.1h-22.3h-5.5z"/><path class="E" d="m82 341.5l-7.3 4.6h-5.5l1.6-12.2z"/><path class="R" d="m51.9 352.4l6.7-5l12.7 2.5l-3.2 9.3h-16.2z"/><path class="E" d="m51.9 352.4l14.5 2l4.9-4.5l-3.2 9.3h-16.2z"/><path class="E" d="m66.4 354.4l1.7 4.8h-16.2v-6.8z"/><path class="S" d="m219.8 327.9l5.9-5.9l13-12.2h12.7l2.9 6.4l-6.3 11.7l-15.3 1.7z"/><path class="E" d="m238.7 309.8l8.6 5.2l7 1.2l-6.3 11.7l-14.2 1.7l-14-1.7z"/><path class="E" d="m238.7 309.8l8.6 5.2l-13.5 14.6l-14-1.7z"/><path class="T" d="m131.5 0l61.3 95.2l-1.9 37.2l23.1 15.9l49.9 82.7l52.6 34.5l-55.2-33.8l-49.4-82.5l-20.1-14.4l-0.9-2.4l-1.2-36.1z"/><path class="U" d="m612 339.7l4.4-33.9l0.9-0.6l2.2-32.8l0.8-1.8l-4.1 60.1l2.9 1.8v5z"/><path class="U" d="m607.1 341.2l1.8-8.7h1.4l0.2 7.6z"/><path class="U" d="m682.2 344.4l2.6-16.5h0.9l-1.7 13.4l1.1 1.4l0.1 1.3z"/><path class="U" d="m589.7 346.6l0.4-6.9h2.2l0.9 5.7z"/><path class="U" d="m191.2 315.8v-18h0.9v16l1.1 0.6l-1-32.7l1-1.5v-16.7l2.7 52.5z"/><path class="U" d="m200.1 316v-4.2l0.9-1.8v6z"/><path class="U" d="m207.9 315.9v-2.6l4.7 1.2l1.8 1.4z"/><path class="U" d="m147.4 313.3l-0.3-7.7l0.9-0.6l0.5 1.7l0.6-1.1l-3.3-26.3l0.9 0.8l3.6 23.4l0.8 0.6l1.4 9.7z"/><path class="V" d="m608.9 332.5h0.9l-0.1 7.9l-2.6 0.8z"/><path class="V" d="m616.4 305.8l0.6-0.2l-1.8 14.1l0.5 0.9l1.3-8.3l-1.9 22.5q-2.9 3.6-2.9 3.5z"/><path class="V" d="m617.5 331.5l-1.3 6l-1.3 0.8l1.3-7.6z"/><path class="V" d="m590.1 339.7h1.2l0.4 6.2l-2 0.7z"/><path class="V" d="m148 305l1.1 8.5l-1.1-0.1l-0.9-7.8z"/><path class="V" d="m145.8 279.3l0.9 0.8l5.3 33.6h-0.7l-1.7-8.1z"/><path class="V" d="m152.5 313.8l-1.7-10l0.3 0.3z"/><path class="W" d="m335.2 281.8l-1.3-6.1l25.5-6.9l46.6-0.6l-0.5-9l20-3.4l4.6-0.7l86.9-22.1l-26.5 15.8l-134.9 54.8l-133.7 3.6z"/><path class="U" d="m243.1 309.9l160.2 11.6l-178-5.2l-3.4-9.1z"/><path class="X" d="m806 400.5h-805.5l0.1-82.9l210.6-1.8l192.1 5.7l-117.2-7.1l-55.6-3.8l-8.6-3.4l180.5-37l4.2-1.4v-9.1l18.3-2.8l4 0.9l88.1-24.8l-13.5 19.4h-4.9l-9.4 25.7l-14.2 0.3l-6.1-8.9l-4.5 16.8l-3.7 2.5l-4.1-2.5l-11.4 34l-19.7 1.5l19 7.2l35.2 9l9.3-5.5l55.4 9.6l3.1 3.2l258.5 5z"/><path class="U" d="m487.8 400.5l30.5-14.1l62.4 0.6l73.8-6.9l-4.2-5.5l6.3-0.8l149.4-9.6v7.6l-151.5 3.1l-3.5 0.1l3.8 5.1l2.1 4.2l-67.8 5.2h-20.2l-50 0.7l-17.2 10.3z"/><path class="U" d="m489 332.5l19.5 8.2l25.7 8.4l-54.5-11.1z"/><path class="U" d="m425.5 321.8l-18.2-1.2l35.6-1.1l11.7-34.8l18.8-22.6l43.6-29.1l-13.5 19.4h-4.9l-9.4 25.7l-14.2 0.3l-6.1-8.9l-3.4 16.2l-4.8 3.1l-4.1-2.5l-7.3 44l-4.8-1.3z"/><path class="U" d="m396.4 321l3.1-1.8l8.6 0.8z"/><path class="U" d="m408.3 260.3l3.7 6.1l9.5 1.2l36.5 6.7l-3.8 0.3l-40.5-5.1l-7.1-0.7v-9.1z"/><path class="U" d="m473.4 262.1l-1.5-1.8l-31.8 1.8l39-3.8z"/><path class="U" d="m493.6 246.7h2.8l-2.5 1.7l-11.7-5.8z"/><path class="Y" d="m424.9 256.9l-15.2 5.2l-3.1-2.4z"/><path class="U" d="m125.9 311.2l94.2 19.9l18.4 1.8l5.8 1l16.3 0.6l-17.5 1.7l-4.7-2.3l-18 1.1l-80.4-18.3l-10.7 0.1z"/><path class="U" d="m125.9 311.2l26.6 2.6l6-8.2l15.5 6.9l0.9 3.8l1.6-1.9l17.8 1.6l-6.7 1.7l-36.1-1.1z"/><path class="V" d="m174 312.5l3.3 4.5l-15.6-4.4l-3.2-7z"/><path class="V" d="m194.1 316.1l-6 1.5l-6.3-0.8l-5.3-2.4z"/><path class="V" d="m161.8 316.2l2.2-1.1l6.6 1.7z"/><path class="V" d="m152.5 313.8l5.3 1.6h-16.6l-15.3-4.2z"/><path class="Z" d="m220.4 335l-0.3-3.9l18.4 1.8l-0.1 1z"/><path class="Z" d="m243.1 336.2l1.2-2.3l16.3 0.6z"/><path class="Z" d="m141.2 315.4l0.7 1.7l-1.9-0.4l-10.7 0.1l-3.4-5.6z"/><path class="Z" d="m157.6 316.8l0.2-1.4l-5.3-1.6l6-8.2l3.2 7l2.3 0.7v1.8l-2.2 1.1l2 0.2v0.6z"/><path class="a" d="m359.1 269.9l44.1-0.7l-68.6 7.5z"/><path class="U" d="m406.6 268.8l-8.9 2.5l-62 12.6l-1.1-7.2z"/><path class="Z" d="m366.1 277.8l-0.6-4.5l22-2.4l-0.5 2.5z"/><path class="Z" d="m390.3 272.8l0.3-2.3l7.6-0.8l-0.5 1.6z"/><path class="Z" d="m292.5 315.2l0.6-2.6l8.7-3.7l8.2 7z"/><path class="Z" d="m256.3 312.6l8.5-8.3l3.9-2.2l17.4 12.3z"/><path class="C" d="m285.3 313.8l-17.5-2.1l-3-7.4l3.9-2.2z"/><path class="C" d="m261.5 311.3l1.7-1.8l3.4 2.9z"/><path class="C" d="m310 315.9l-10.3-2.1l-2-3.1l4.1-1.8z"/><path class="C" d="m290.2 315.1l2.8-0.9l3.5 1.2z"/><path class="U" d="m343.6 290.8l2.9 0.8l41.4 2.1l3.5 4.3l2.8 0.6l53.9 5.4l-0.6 1.6l-56.1-7l-3.1-4.2l-44.1-2.3l-8.5-8.2z"/><path class="Z" d="m582.2 386.4l3 3.1l-66.3 0.7l-0.6-3.8z"/><path class="Z" d="m590.1 389.4v-3.6l7.7-0.4l0.9 3.4z"/><path class="Z" d="m618.7 387.4l-1.8-3.8l15.2-1.4l3 3.6z"/><path class="U" d="m806 364.2v7.6l-155 3.2l-0.7-0.4z"/><path class="Z" d="m593.6 369v1.8l-14.5 1v-3.7z"/><path class="G" d="m582.2 386.4l-62.7 0.3l-8.3-2.4l72.7-10.3l66.4 0.6l4.5 5.5z"/><path class="Z" d="m508.5 340.7l-1 3l-11.6-2.4l0.6-5.7z"/><path class="Z" d="m511.2 344.5l1.3-2.5l21.7 7.1z"/><path class="Z" d="m442.9 319.5l2.1 9.7l-19.5-7.4v-1.8z"/><path class="Z" d="m479.1 258.3v3.2l-8.9 4.4l3.2-3.8l-1.5-1.8z"/><path class="Z" d="m491.9 247.4l-0.3-1.4l2 0.7h2.8l-1.2 8.7h-1.5l0.2-7z"/><path class="Z" d="m498.6 252.4l-1.8-3.6l6.7 3.6z"/><path class="a" d="m455.6 284.9l14.6-19l22.1-10.8l22.7 4.4l-7.1 6.5l-25.5 9.8z"/><path class="U" d="m515 259.5l-5.7 15.5l-12 24.2l-4.5 0.5l-0.9-16.9l-12.1 34.6l-11.4 12.2l-8.8-5.1l-4-39.6l52.3-18.9z"/><path class="Z" d="m455.6 284.9l22.1-7.3l2.1 39.8l-11.4 12.2l-1.4-32.1l-3.8 1.2l2.7 24.1l1.1 6l-7.4-4.3z"/><path class="Z" d="m491.9 282.8l-0.3-11.3l15.4-5.1l-1.2 12.3l-8.5 20.5l-4.5 0.5z"/><path class="a" d="m498 285.4l7-6.4l15.5 0.3l-11.2 5.5z"/><path class="U" d="m520.5 279.3l-1.5 4l-4 3.9l-4.7 17.3l-3.8 1.8l-7.3-7l-1.2-13.9z"/><path class="Z" d="m498 285.4l11.9-3.2l-0.6 22.8l-0.4-14.5l-2.4 15.8l-7.3-7z"/><path class="Z" d="m515 287.2l-2.9-0.6l6.9-3.3z"/><path class="U" d="m491.5 271.9l-18.2-5.5l20 4.9z"/><path class="b" d="m468.4 329.6l10.7-24.6l7.9-8.2l-7.2 20.6z"/><path class="b" d="m515 287.2l-2.9-0.6l6.9-3.3z"/><path class="b" d="m497.3 299.2l-4.5 0.5l5.8-5.7l0.2 2.3z"/><path class="b" d="m506.5 306.3l2.4-15.8l0.4 14.5l0.4-14.5l3.6-3.3h1.7l-4.7 17.3z"/><path class="b" d="m473 312.6l2.9-2.8l-4.9 11.5z"/><path class="Z" d="m429 271.4l1.8-2.1l27.2 5l-3.8 0.3z"/><path class="Z" d="m425.6 271v-2.7l3.4 0.7l-0.9 2.3z"/><path class="V" d="m188.7 342.1l67.6 5.1l-65.1-2.7z"/><path class="H" d="m217.9 395l-54.6-1.6l97.3-16z"/><path class="V" d="m241.4 391.5l10.6-6.1l-3.1 3.1z"/><path class="c" d="m0.5 321.5l116 7.1l72.2 13.5l2.5 2.4l65.1 2.7l77.9 12.5l-70.2 17.5l-100.7 16.2l-162.8 7.1z"/><path class="Z" d="m334.2 359.7l-34.1 8.5v-14l-1.1 14.2l-43.1 10.1l0.4-31.3z"/><path class="Z" d="m191.2 344.5l-4.7 45.1l-21.4 3.5l8.3-53.9l7.7 1.5l-7.7 42.8l4.4 0.5l5.1-43l5.8 1.1z"/><path class="Z" d="m129.2 396l11.1-58.7l30.3 1.4l-14.2 54.4z"/><path class="Z" d="m201 387.3l19.1-42.8l6.1 0.4l-12.3 40.3z"/><path class="V" d="m192.6 353.1l22.8 2.4l-7.5 2.2z"/><path class="Z" d="m207.9 357.7l-9.4 29.9l-10.5 1.7l4.6-36.3z"/><path class="V" d="m198.9 358.4l14.7 5.4l11.1 9.7l-20.6-8.7z"/><path class="V" d="m196.4 364.8l6.2 0.8l4.2 2.5z"/><path class="V" d="m269.5 362.1l52.5 0.4l-12.7 3.7z"/><path class="V" d="m262.9 364.2l21.3 1.8l-7 1.7z"/><path class="V" d="m81 331.1h35.2l24.1 6.2h-39.1z"/><path class="V" d="m142.2 337.4l16.9 0.7l-7.6 2.6z"/><path class="V" d="m128.5 344.5h2.9l0.8 2.7h-6.3z"/><path class="U" d="m589.1 346.6l79.7-24.2l7.6 6.2l1.2 19l2.1-3.1l11-1.1l14.7 6.9z"/><path class="V" d="m668.8 322.4l3.8 5l-9.1 19.2l-17.9-5.8l-54.7 5.3z"/><path class="V" d="m621.6 346.6l24.3-4.5l7.1 2.4z"/><path class="V" d="m690.7 343.4l-3.1 4.9l-12.1 0.8l4.2-4.6z"/><path class="V" d="m688.9 349.1l5.9-1.2l4.9 1.2z"/><path class="V" d="m666.1 347.9l7.4-4.5l2 3.2z"/><path class="Z" d="m589.1 346.6l39.7-4.2v2.8l-7.2 1.4l-0.3 1z"/><path class="Z" d="m672.6 327.4l3.8 1.2l1.2 18.3l-2.1 2.2l-0.9 0.4l0.9-2.9l-2-3.2l-7.4 4.5l-0.8 1.1h-1.8v-2.4z"/><path class="Z" d="m687.8 349.7l-0.2-1.4l3.1-4.9l8 3.8l-2.7 1l-1.2-0.3l-5.9 1.2v0.7z"/><path class="Z" d="m699.2 350.1l0.5-1l5.7 1.2z"/><path class="U" d="m334.2 359.7l27.5-6.6l71.7-6.5l46.3-8.6l-47.2 12.3l-71.9 4.9z"/><path class="Z" d="m433.4 346.6l-0.9 3.7l-23.9 1.6l-0.2-3z"/><path class="Z" d="m400.6 352.5l-1.7-2.8l6.3-0.6l1.8 2.8z"/><path class="Z" d="m396.3 352.8l-2.8-2.8h2.6l1.7 2.5z"/><path class="U" d="m806 360.9l-367.3 20.5l-35.4 2.1l-89.6 17h-32.5l127.1-18.4l80.2-6.1l15.4-11.1l99.7 4.6l202.4-13.1z"/><path class="H" d="m503.9 364.9l-41.4-8.6l29.7-7.2h50.1l65.4 19z"/><path class="H" d="m403.9 382.6l-16.4 0.9l-14.9-3.4l85-17.4l30.9 13.3z"/><path class="d" d="m349 390.7l21.9-16.1h8.4l5.5 8.9z"/><path class="d" d="m317.7 395.2l13.1-4.5l11.7-2.8l3.6 2.8z"/><path class="V" d="m379.3 374.6l-5.6 8.9l-22.8 5.8l20-14.7z"/><path class="V" d="m376.5 383.2l4.9-2.4l2.2 1.8z"/><path class="V" d="m342.5 387.9l2.3 1.8l-13.5 2.5l-12.8 2.8l12.3-4.3z"/><path class="Z" d="m540.3 366.6l2.3 7.7l-21.1 1.4l-3.2-10.3z"/><path class="Z" d="m548.7 367v6.9l-2.8 0.2l-1.4-7.3z"/><path class="Z" d="m404.5 383.5l-0.6-0.9l84.6-6.6l4.8-3.4l6.9 4.6z"/><path class="Z" d="m373.7 383.5l1.4 1.9l-10 2.1l-0.7-1.6z"/><path class="Z" d="m437.8 381.5l1.7-1.7l18.4-1.4v1.6z"/><path class="Z" d="m460.2 379.8l2-1.8l15.5-1.1l-1.1 1.8z"/><path class="U" d="m466.6 357.1l31.4 5.6l13.2 2.4l-11 2.5l-5-4z"/><path class="U" d="m515.5 365.3l8.6-1.1l11 1.7h-13.8z"/><path class="U" d="m403.9 382.6l-20.7 3.1l4.3-2.2z"/><path class="U" d="m370.5 384.2l4.2-2.2l-0.5 2.2z"/><path class="e" d="m341.6 390.3l3.2-0.6l0.4 0.3z"/><path class="H" d="m361.7 353.1l45.9-9.4h42l-16.2 2.9z"/><path class="V" d="m342.1 351.4l15.6-4.8l12.4 1.8l-11 2.4z"/><path class="V" d="m426.3 340.7l4.3-0.5l7 1.5h-9.8z"/><path class="V" d="m439.5 341.7l40.2-3.7l-30.8 5.4z"/><path class="Z" d="m230.5 310.6v5.8l-5.2-0.1l-3.4-9.1z"/><path class="Z" d="m243.5 316.8l2.1-5l11.3 0.6l-1.9 4.7z"/><path class="H" d="m334.2 359.7l7.5-4.1l8.3 1.4z"/><path class="V" d="m544.4 342.1l-5.5 7h-4.7l-45.2-16.6z"/><path class="V" d="m479.7 338q21.7 4.4 21.9 4.5q0.1 0-13.4 1.2z"/><path class="V" d="m589.7 346.6l34 1l-40.7 4.9l-40.7-3.4l5.2-3.8z"/><path class="V" d="m259.1 346l6.7 2.9l-15.6-2.1z"/><path class="H" d="m266.2 308.3l8.3 3.9l-6.7-0.5z"/><path class="U" d="m427.3 347.1l13-1.8l-7 1.8z"/><path class="U" d="m425.3 347.3l-8.9 0.8l4.8-1z"/><path class="H" d="m436.8 319.6l6.8-2.8v5.5z"/><path class="H" d="m181.6 323l15.8-2.8l83.5 4.6l7.4 5.7l-68.2 0.6z"/><path class="H" d="m243.9 333.1l44.1-1.3l13.3 3.2l-45-0.6z"/><path class="H" d="m311.3 315.9l14.1-4.1l45.1 7.4z"/><path class="H" d="m435.3 338l-64-3l-63.5-14.8l119.1 2.1l17.6 6.7z"/><path class="G" d="m806 400.5h-297.5l63.4-10.3l234.1-9.9z"/><path class="Z" d="m101.2 337.3l-4.9 61.1l-95.8 2.1v-79l92.2 5.6l0.1 4h-11.1l5.8 2l-3.3 54.2l5.7 0.8l-0.8-54.5z"/><path class="Z" d="m100.3 331.1l0.5-3.4l15.7 0.9l-0.4 2.5z"/><path class="V" d="m41.6 380.8l29.1-12.7l11.4-0.4z"/><path class="V" d="m45.2 383.5l16.4-2.7l-4.1 3.9h-18.5z"/><path class="f" d="m61.6 380.8l-3.3 17.2l-2.2 0.1l1.4-13.4z"/><path class="U" d="m721 400.5l85-15.7v5.1l-77.4 10.6z"/><path class="Z" d="m806 384.8l-85 15.7h-64.1l149.1-20.2z"/><path class="Z" d="m764.2 395.6l-0.7-2.9l26.4-5.3l1.6 4.1z"/></svg>