<svg version="1.2" xmlns="http://www.w3.org/2000/svg" viewBox="0 0 800 313" width="800" height="313"><defs><linearGradient id="P" gradientUnits="userSpaceOnUse"/><linearGradient id="g1" x1="-2" y1="312.4" x2="-2" y2="0" href="#P"><stop stop-color="#43c4ba"/><stop offset=".5" stop-color="#2845b7"/><stop offset="1" stop-color="#000433"/></linearGradient><linearGradient id="g2" x1="140.9" y1="-2" x2="726.1" y2="-2" href="#P"><stop stop-color="#4b4b63"/><stop offset="1"/></linearGradient><linearGradient id="g3" x1="607.7" y1="45.1" x2="607.7" y2="0" href="#P"><stop stop-color="#cdd9ff"/><stop offset="1" stop-color="#f6f9ff"/></linearGradient><linearGradient id="g4" x1="84.9" y1="15" x2="800" y2="15" href="#P"><stop stop-color="#505b77"/><stop offset="1"/></linearGradient></defs><style>.A{fill:url(#g1)}.B{opacity:.2;mix-blend-mode:screen;fill:url(#g2)}.C{opacity:.2;mix-blend-mode:soft-light;fill:url(#g3)}.D{opacity:.2;mix-blend-mode:screen;fill:url(#g4)}</style><path class="A" d="m0 0h800v312.4l-800-21.4z"/><path class="B" d="m452.5 0q80.5 32.5 172.6 61.5l-222.4-44.5q70.3 37 323.4 91q-156.5-23.9-286.4-46q-129.8-22.1-298.8-62z"/><path class="C" d="m655.2 0q44.4 15.5 123.4 45.1q-100.4-24.7-168.9-45.1z"/><path class="D" d="m84.9 17q502.1 93.2 712.8 93.2l2.3 57.1l-278 0.6l19 9.1l-339-14.3l150.5 1.1l-211.6-35.8z"/></svg>